<?xml version="1.0" encoding="UTF-8" standalone="no"?>
<svg
   xmlns:dc="http://purl.org/dc/elements/1.1/"
   xmlns:cc="http://creativecommons.org/ns#"
   xmlns:rdf="http://www.w3.org/1999/02/22-rdf-syntax-ns#"
   xmlns:svg="http://www.w3.org/2000/svg"
   xmlns="http://www.w3.org/2000/svg"
   xmlns:sodipodi="http://sodipodi.sourceforge.net/DTD/sodipodi-0.dtd"
   xmlns:inkscape="http://www.inkscape.org/namespaces/inkscape"
   width="200"
   height="200"
   viewBox="0 0 52.916665 52.916668"
   version="1.1"
   id="svg8"
   inkscape:version="1.0.2 (1.0.2+r75+1)"
   sodipodi:docname="Logo.svg">
  <defs
     id="defs2" />
  <sodipodi:namedview
     id="base"
     pagecolor="#ffffff"
     bordercolor="#666666"
     borderopacity="1.0"
     inkscape:pageopacity="0.0"
     inkscape:pageshadow="2"
     inkscape:zoom="0.98994949"
     inkscape:cx="93.503062"
     inkscape:cy="83.176991"
     inkscape:document-units="mm"
     inkscape:current-layer="layer1"
     showgrid="false"
     inkscape:window-width="1366"
     inkscape:window-height="704"
     inkscape:window-x="0"
     inkscape:window-y="27"
     inkscape:window-maximized="1"
     showguides="true"
     inkscape:guide-bbox="true"
     units="px"
     inkscape:document-rotation="0" />
  <metadata
     id="metadata5">
    <rdf:RDF>
      <cc:Work
         rdf:about="">
        <dc:format>image/svg+xml</dc:format>
        <dc:type
           rdf:resource="http://purl.org/dc/dcmitype/StillImage" />
        <dc:title />
      </cc:Work>
    </rdf:RDF>
  </metadata>
  <g
     inkscape:label="Celeste"
     inkscape:groupmode="layer"
     id="layer1"
     transform="translate(0,-244.08332)">
    <ellipse
       style="opacity:0;fill:#77b2d3;fill-opacity:1;stroke:none;stroke-width:0.44840944;stroke-linecap:butt;stroke-linejoin:miter;stroke-miterlimit:4;stroke-dasharray:none;stroke-opacity:1"
       id="path836"
       cx="26.491537"
       cy="270.57465"
       rx="26.16641"
       ry="26.166559" />
    <path
       id="path836-7-4"
       style="opacity:1;fill:#fdcb0a;fill-opacity:1;stroke:none;stroke-width:1.69477;stroke-linecap:butt;stroke-linejoin:miter;stroke-miterlimit:4;stroke-dasharray:none;stroke-opacity:1"
       d="M 100.50195 1.4023438 A 98.896677 98.895984 0 0 0 1.6074219 100.29883 A 98.896677 98.895984 0 0 0 100.50195 199.19531 A 98.896677 98.895984 0 0 0 199.39844 100.29883 A 98.896677 98.895984 0 0 0 100.50195 1.4023438 z M 84.599609 36.617188 A 14.394673 64.144686 0 0 1 98.994141 100.76172 A 14.394673 64.144686 0 0 1 84.599609 164.9082 A 14.394673 64.144686 0 0 1 70.205078 100.76172 A 14.394673 64.144686 0 0 1 84.599609 36.617188 z M 131.24219 76.771484 A 10.606601 25.380081 0 0 1 131.32031 76.771484 A 10.606601 25.380081 0 0 1 141.92578 102.15234 A 10.606601 25.380081 0 0 1 131.32031 127.53125 A 10.606601 25.380081 0 0 1 120.71289 102.15234 A 10.606601 25.380081 0 0 1 131.24219 76.771484 z "
       transform="matrix(0.26458333,0,0,0.26458333,0,244.08332)" />
  </g>
  <g
     inkscape:groupmode="layer"
     id="layer6"
     inkscape:label="Brillo 1" />
</svg>
