<?xml version="1.0" encoding="UTF-8" standalone="no"?>
<svg
   xmlns:dc="http://purl.org/dc/elements/1.1/"
   xmlns:cc="http://creativecommons.org/ns#"
   xmlns:rdf="http://www.w3.org/1999/02/22-rdf-syntax-ns#"
   xmlns:svg="http://www.w3.org/2000/svg"
   xmlns="http://www.w3.org/2000/svg"
   xmlns:sodipodi="http://sodipodi.sourceforge.net/DTD/sodipodi-0.dtd"
   xmlns:inkscape="http://www.inkscape.org/namespaces/inkscape"
   id="9af98f83-10c5-4067-bc84-20554b2827d8"
   data-name="Layer 1"
   width="381"
   height="302"
   viewBox="0 0 381.00001 302"
   version="1.1"
   sodipodi:docname="NoData.svg"
   inkscape:version="1.0.2 (1.0.2+r75+1)">
  <metadata
     id="metadata208">
    <rdf:RDF>
      <cc:Work
         rdf:about="">
        <dc:format>image/svg+xml</dc:format>
        <dc:type
           rdf:resource="http://purl.org/dc/dcmitype/StillImage" />
        <dc:title>empty</dc:title>
      </cc:Work>
    </rdf:RDF>
  </metadata>
  <sodipodi:namedview
     pagecolor="#ffffff"
     bordercolor="#666666"
     borderopacity="1"
     objecttolerance="10"
     gridtolerance="10"
     guidetolerance="10"
     inkscape:pageopacity="0"
     inkscape:pageshadow="2"
     inkscape:window-width="1366"
     inkscape:window-height="704"
     id="namedview206"
     showgrid="false"
     inkscape:zoom="0.99898874"
     inkscape:cx="561.69306"
     inkscape:cy="179.52033"
     inkscape:window-x="0"
     inkscape:window-y="27"
     inkscape:window-maximized="1"
     inkscape:current-layer="9af98f83-10c5-4067-bc84-20554b2827d8" />
  <defs
     id="defs9">
    <linearGradient
       id="07c62293-c0d3-4921-8e06-4e39241449cd"
       x1="318.22"
       y1="488.45001"
       x2="630.34998"
       y2="488.45001"
       gradientUnits="userSpaceOnUse"
       gradientTransform="matrix(0.37730711,0,0,0.37730711,-35.933515,-20.761112)">
      <stop
         offset="0"
         stop-color="gray"
         stop-opacity="0.25"
         id="stop2" />
      <stop
         offset="0.54"
         stop-color="gray"
         stop-opacity="0.12"
         id="stop4" />
      <stop
         offset="1"
         stop-color="gray"
         stop-opacity="0.1"
         id="stop6" />
    </linearGradient>
  </defs>
  <title
     id="title11">empty</title>
  <ellipse
     cx="133.6132"
     cy="279.68854"
     rx="66.443787"
     ry="12.586966"
     fill="#75c1ae"
     opacity="0.1"
     id="ellipse13"
     style="stroke-width:0.377307" />
  <path
     d="M 221.30692,42.034109 C 196.88761,41.188941 173.6304,33.303223 151.4221,24.677982 129.2138,16.052742 107.2168,6.499326 83.382311,1.9301369 68.052323,-1.0090854 50.518862,-1.4278963 38.1696,6.7823063 26.280654,14.705756 22.439667,28.345407 20.375797,41.011607 c -1.554505,9.530777 -2.467588,19.563373 1.788436,28.486686 2.958088,6.195383 8.202657,11.402221 11.832351,17.337262 12.628469,20.646245 3.701383,46.106925 -9.979773,66.266445 -6.414221,9.45532 -13.866036,18.48805 -18.8200785,28.54328 -4.95404226,10.05524 -7.2442964,21.61593 -2.9090377,31.90132 4.2937548,10.18729 14.5300962,17.82399 25.6191522,23.20061 22.521461,10.92304 49.049924,14.04715 74.936963,15.82049 57.28654,3.91645 114.87492,2.22234 172.31238,0.52068 21.25749,-0.62633 42.60552,-1.26397 63.51588,-4.55032 11.61351,-1.82617 23.60056,-4.72388 32.03337,-11.71916 10.70043,-8.87803 13.3529,-23.90995 6.1803,-35.04051 -12.02856,-18.6767 -45.27686,-23.3138 -53.69458,-43.35258 -4.62578,-11.03246 0.12451,-23.31758 6.8519,-33.54638 14.42822,-21.94795 38.60983,-41.201936 39.88136,-66.285312 0.87535,-17.227842 -10.74948,-34.482096 -28.72439,-42.635703 -18.83894,-8.5460058 -44.96746,-7.4706806 -58.85991,6.674563 -14.3188,14.548962 -39.4701,20.151972 -61.0332,19.401131 z"
     fill="#75c1ae"
     opacity="0.1"
     id="path15"
     style="stroke-width:0.377307" />
  <path
     d="m 201.90202,136.48917 -11.55692,-7.79139 v 0 l 5.8294,-8.67807 -30.52415,-2.43363 -10.96832,8.48187 -13.7302,-7.69707 -11.45127,1.37717 -0.13583,-3.01845 a 85.188398,85.188398 0 0 0 -0.94704,-9.39495 c 0.049,-0.94327 0.083,-2.02614 0.0792,-3.20334 0,-4.961586 -0.67161,-11.538049 -3.62215,-15.922357 l 0.67916,-6.104829 -5.50869,-6.508548 a 41.643385,41.643385 0 0 1 3.01846,-5.078553 c 0.18865,-0.271662 0.37731,-0.535777 0.58105,-0.792345 7.14997,-0.516911 12.79071,-6.395356 12.79071,-13.583056 0,-0.33203 0,-0.664061 -0.0377,-0.992318 0,-0.132057 -0.0264,-0.267888 -0.0415,-0.399945 0.69802,0.377307 1.40358,0.754614 2.10915,1.131921 0.13205,0.188653 0.28298,0.377307 0.44899,0.599918 v 0 l 0.034,0.0415 0.21129,0.260342 0.0679,0.07923 c 0.0755,0.09055 0.15469,0.177335 0.23393,0.267888 l 0.0528,0.06037 c 0.19997,0.222611 0.41126,0.448995 0.63765,0.671606 a 0.67915279,0.67915279 0 0 1 0.0755,0.07169 l 0.28298,0.264115 0.0792,0.07169 c 0.24148,0.215065 0.49805,0.422584 0.75462,0.618784 l 0.083,0.06037 0.32448,0.222611 0.10565,0.06791 c 0.12451,0.07546 0.25279,0.154696 0.3773,0.226384 l 0.0453,0.02641 c 0.14715,0.07923 0.29807,0.154696 0.449,0.226384 l 0.0755,0.03018 q 0.19242,0.08301 0.3773,0.158469 l 0.11697,0.0415 c 0.13206,0.04528 0.26034,0.08678 0.39617,0.124511 l 0.083,0.02264 c 0.16601,0.0415 0.33203,0.07546 0.50182,0.101873 h 0.0189 a 4.1051013,4.1051013 0 0 0 0.48296,0.04905 h 0.10942 a 4.1503782,4.1503782 0 0 0 0.4339,0 h 0.0943 a 4.4710892,4.4710892 0 0 0 0.53954,-0.06414 5.9539061,5.9539061 0 0 0 2.37704,-0.852714 2.0751891,2.0751891 0 0 0 0.48295,-0.448996 c 0.75462,-0.988544 -0.0755,-2.071416 -0.0755,-2.071416 v 0 c -0.2943,-0.701791 -2.20347,-1.196063 -2.20347,-1.196063 0,0 -6.03692,-2.520412 -6.03692,-4.527685 0,-2.007274 -1.50922,-12.42095 -17.08824,-14.801758 0,0 -10.13446,-0.569734 -12.98313,4.855942 l -0.0604,0.633876 c -0.83762,0.524457 -1.53187,1.577144 -2.35817,1.886536 a 3.8523055,3.8523055 0 0 0 -1.0225,0.377307 v -0.07169 0 a 0.97345233,0.97345233 0 0 0 -0.23016,0.298072 3.0184568,3.0184568 0 0 0 -0.31317,1.131921 4.2635703,4.2635703 0 0 1 -0.49427,1.369625 3.0448683,3.0448683 0 0 1 -0.22638,0.347123 v 0 l -0.0641,0.101873 a 2.7543419,2.7543419 0 0 0 1.28284,-0.207519 6.3878093,6.3878093 0 0 1 -0.37731,1.509228 1.2526596,1.2526596 0 0 0 1.16211,-0.694245 v -0.03018 l 0.049,-0.06792 a 3.184472,3.184472 0 0 0 0.23393,-0.547095 l -0.0415,0.04528 c 0.0755,-0.24525 0.14338,-0.494272 0.22639,-0.735749 a 1.1545597,1.1545597 0 0 1 0.18488,-0.377307 0.91308319,0.91308319 0 0 1 0.78103,-0.260342 l -0.1547,3.271253 h 0.0679 a 4.4635431,4.4635431 0 0 1 -0.33203,0.686699 c -0.53577,0.867806 -1.50922,1.460178 -1.86767,2.410992 a 3.5466868,3.5466868 0 0 0 -0.17356,1.426221 c 0,0.28298 0.034,0.569734 0.0566,0.852714 v -0.02264 c 0.0528,0.754615 0.0679,1.471498 -0.33958,2.078963 -0.2792,0.415037 -0.7282,0.728202 -0.8829,1.199836 a 1.169652,1.169652 0 0 0 -0.0566,0.407492 4.5767352,4.5767352 0 0 0 0.25657,1.211156 0.05282299,0.05282299 0 0 0 0,-0.02264 1.8412587,1.8412587 0 0 1 0.0641,0.890445 c -0.16979,0.754614 -1.08665,1.384717 -1.04137,2.105374 a 0.81121028,0.81121028 0 0 0 0.0415,0.279207 1.5280938,1.5280938 0 0 0 0.85271,0.754614 3.3203025,3.3203025 0 0 0 1.91672,0.422584 2.5204115,2.5204115 0 0 0 0.71688,-0.24525 c -0.26411,0.607465 -0.53577,1.207383 -0.81121,1.777117 -0.0415,0.09055 -0.0868,0.181107 -0.13205,0.271661 0,0 -2.33176,-1.558278 -3.65611,1.618648 a 7.0480967,7.0480967 0 0 0 -0.81876,2.128012 5.0634614,5.0634614 0 0 1 -0.2792,0.875352 5.6331951,5.6331951 0 0 1 -2.52042,2.263843 c -2.701435,1.237584 -13.613156,14.847051 -13.805583,18.3711 a 20.559464,20.559464 0 0 1 -0.694245,4.06737 24.204251,24.204251 0 0 0 -0.648968,9.617558 18.401268,18.401268 0 0 0 0.667833,3.06751 c 1.158333,3.52027 1.931813,10.08919 1.931813,10.08919 l 1.252659,11.40222 a 32.448411,32.448411 0 0 0 0.203746,4.71257 c -1.279071,1.46017 -6.414221,7.54614 -4.452224,9.20252 1.509229,1.30548 4.150379,1.09041 5.633196,0.82253 -1.248887,3.09014 -3.214657,8.46299 -3.474999,12.15306 -0.377307,5.45963 0.645195,12.69261 2.263843,15.46959 1.618647,2.77698 7.014139,9.90054 7.014139,9.90054 0,0 -0.252796,9.77225 1.675243,13.32271 1.92804,3.55046 2.705297,10.9155 2.705297,10.9155 0,0 1.79975,6.21802 0.89799,8.5045 -0.90177,2.28648 1.67147,4.18811 -1.03005,5.70865 -2.701521,1.52055 -6.157654,35.79136 -6.157654,35.79136 0,0 -1.392263,22.46109 0,23.60433 a 1.4149016,1.4149016 0 0 0 0.237703,0.1396 v 7.54614 c 0,0 -0.965906,1.58469 2.961861,1.90541 2.6902,0.21506 10.31558,0.70179 14.83949,0.98477 l 3.50518,0.21883 c 0,0 8.30076,1.65261 11.96818,0 3.66743,-1.6526 10.16843,-1.61487 9.20252,-5.98031 a 12.42095,12.42095 0 0 0 -0.51313,-1.74693 c -1.06024,-2.70907 -2.85999,-3.01846 -6.17652,-3.77308 -0.19243,-0.0415 -0.37731,-0.0792 -0.5471,-0.10941 -3.49386,-0.60747 -4.64087,1.01872 -6.5991,-1.09797 -1.70165,-1.82994 -7.11978,-3.87872 -8.96482,-4.52768 0.0453,-0.13583 0.10188,-0.26789 0.14715,-0.4075 a 2.761888,2.761888 0 0 1 -1.3998,-0.68292 l 4.99931,0.31694 2.97696,0.18488 c 0,0 7.05564,1.40735 10.18729,0 3.13165,-1.40736 8.64033,-1.36963 7.8178,-5.07856 a 10.643833,10.643833 0 0 0 -0.4339,-1.48659 c -0.90176,-2.30157 -2.43363,-2.55437 -5.25212,-3.19201 -0.16224,-0.034 -0.31316,-0.0679 -0.46408,-0.0943 -2.96941,-0.51691 -3.94286,0.86403 -5.60679,-0.93195 -1.42622,-1.53187 -5.92749,-3.24861 -7.54614,-3.83344 0,-0.83762 -1.13192,-2.02991 -1.84503,-3.22598 -0.83762,-1.39603 0.70934,-6.28216 0.70934,-6.28216 l 0.8829,-20.27271 a 3.9164478,3.9164478 0 0 1 1.05646,-0.30185 c 0,0 3.9919,-3.8108 3.09014,-7.87062 a 26.08324,26.08324 0 0 1 -0.28675,-3.70893 c 1.31303,-1.2187 3.12033,-3.01846 3.63346,-4.12774 0.83763,-1.8073 0,-10.5646 0,-10.5646 v -33.486 l 6.67834,0.67537 6.05955,0.62256 1.84503,0.18866 6.05956,0.61123 13.9264,1.40736 12.54924,-2.37704 5.42944,-1.02627 11.16452,-2.11292 v -27.31704 z m -91.91579,-90.519748 -0.77725,-0.08301 c 0.25657,0.01132 0.52823,0.06037 0.77725,0.08301 z"
     fill="url(#07c62293-c0d3-4921-8e06-4e39241449cd)"
     id="path17"
     style="fill:url(#07c62293-c0d3-4921-8e06-4e39241449cd);stroke-width:0.377307" />
  <path
     d="m 174.81514,154.22638 c -3.77307,5.39926 -17.33726,2.53927 -17.33726,2.53927 l -10.51178,-9.83639 -1.4149,-1.3319 2.37326,-5.04082 c 0,0 0.75462,0.20752 2.04878,0.57728 6.7953,1.97332 28.02637,8.55355 24.8419,13.09256 z"
     fill="#efb7b9"
     id="path19"
     style="stroke-width:0.377307" />
  <path
     d="m 149.9657,141.13382 c -0.46409,1.61487 -1.73562,4.03341 -2.9996,5.79544 l -1.4149,-1.3319 2.37326,-5.04082 c 0,0 0.76216,0.20752 2.04124,0.57728 z"
     opacity="0.1"
     id="path21"
     style="stroke-width:0.377307" />
  <path
     d="m 113.914,84.288732 c 0,0 -9.68924,4.297528 -9.21384,14.850808 a 173.9914,173.9914 0 0 0 2.21857,20.28403 c 0,0 -1.98086,15.88086 6.26707,19.97464 8.24793,4.09378 15.88086,7.45936 15.88086,7.45936 0,0 12.9039,1.38849 14.50745,1.962 1.60356,0.5735 6.6142,-8.19511 5.68979,-9.56097 -0.9244,-1.36585 -12.76807,-4.22961 -14.2773,-6.50854 -1.50922,-2.27894 -4.99932,-3.68629 -4.99932,-3.68629 0,0 -3.60328,-2.18084 -3.84853,-4.15038 -0.24525,-1.96955 0.70557,-3.43727 0.94704,-4.3013 0.24148,-0.86404 0.85272,-9.2063 0.85272,-9.2063 0,0 4.06737,-29.694066 -14.02451,-27.117058 z"
     fill="#dce6f2"
     id="path23"
     style="stroke-width:0.377307" />
  <path
     d="m 120.30936,118.98967 c 0,0 -13.29253,2.22611 -12.00591,6.8783 0,0 4.82575,-5.02195 12.00591,-6.8783 z"
     opacity="0.1"
     id="path25"
     style="stroke-width:0.377307" />
  <path
     d="m 120.41123,120.87243 c 0,0 -7.30844,5.96522 -5.87844,6.27084 1.42999,0.30562 5.87844,-6.27084 5.87844,-6.27084 z"
     opacity="0.1"
     id="path27"
     style="stroke-width:0.377307" />
  <path
     d="m 123.92396,122.95139 c 0,0 -1.95822,4.01078 -0.75461,3.73911 1.2036,-0.27166 0.75461,-3.73911 0.75461,-3.73911 z"
     opacity="0.1"
     id="path29"
     style="stroke-width:0.377307" />
  <path
     d="m 150.4562,141.56018 -0.80744,-0.23016 c 0.23016,-0.75461 0.2943,-1.36585 0.10564,-1.64883 -0.9244,-1.36585 -12.76052,-4.22584 -14.26598,-6.50855 -1.50545,-2.28271 -4.99932,-3.68629 -4.99932,-3.68629 0,0 -3.60328,-2.18084 -3.84853,-4.15038 -0.24525,-1.96954 0.70556,-3.43727 0.94704,-4.3013 0.24148,-0.86403 0.85272,-9.21007 0.85272,-9.21007 0,0 4.05605,-29.690292 -14.03583,-27.113284 0,0 -9.68925,4.301301 -9.21761,14.854581 a 173.50467,173.50467 0 0 0 2.22234,20.284033 c 0,0 -1.98086,15.88085 6.26707,19.97463 8.24793,4.09379 15.88085,7.45937 15.88085,7.45937 0,0 12.90013,1.38471 14.50746,1.96199 0.60747,0.21884 1.70543,-0.90931 2.78076,-2.46004 l 0.61123,0.56973 10.51178,9.83263 c 0,0 13.56419,2.86376 17.33726,-2.53551 3.18825,-4.54277 -18.03905,-11.12301 -24.84944,-13.09255 z"
     opacity="0.1"
     id="path31"
     style="stroke-width:0.377307" />
  <path
     d="m 108.3374,44.679032 a 3.2071104,3.2071104 0 0 0 -1.04514,0.403719 c -0.3773,0.313164 -0.3773,0.848941 -0.47163,1.316801 a 4.3314856,4.3314856 0 0 1 -0.75462,1.803528 2.7128381,2.7128381 0 0 0 1.25644,-0.207519 6.4670438,6.4670438 0 0 1 -0.37731,1.509229 1.222475,1.222475 0 0 0 1.13192,-0.690472 7.2669348,7.2669348 0 0 0 0.47163,-1.324348 1.0904175,1.0904175 0 0 1 0.18111,-0.377307 c 0.34712,-0.411265 0.99232,-0.226384 1.5281,-0.173561 a 2.5090923,2.5090923 0 0 0 2.29402,-1.101737 c 0.56974,-0.864034 0.60369,-3.075053 -0.75461,-3.308984 -1.41868,-0.23393 -2.30157,1.720521 -3.45991,2.150651 z"
     fill="#965d7b"
     id="path33"
     style="stroke-width:0.377307" />
  <g
     opacity="0.1"
     id="g41"
     transform="matrix(0.37730711,0,0,0.37730711,-0.00255938,0.00209761)">
    <path
       d="m 379.5,175.74 c 0.09,-0.49 0.15,-1 0.26,-1.49 v 0 c -0.95,0.83 -1,2.24 -1.25,3.49 a 11,11 0 0 1 -0.59,2.11 11.46,11.46 0 0 0 1.58,-4.11 z"
       transform="translate(-95.23,-55.03)"
       id="path35" />
    <path
       d="m 379.82,184 a 16.63,16.63 0 0 0 1,-4 7.16,7.16 0 0 1 -3.17,0.55 11.57,11.57 0 0 1 -1.15,2 7.12,7.12 0 0 0 3.32,-0.54 16.63,16.63 0 0 1 -1,4 3.25,3.25 0 0 0 3,-1.83 7.46,7.46 0 0 0 0.6,-1.43 3,3 0 0 1 -2.6,1.25 z"
       transform="translate(-95.23,-55.03)"
       id="path37" />
    <path
       d="m 388.6,177.2 c -1.42,-0.14 -3.14,-0.63 -4.06,0.46 a 3.09,3.09 0 0 0 -0.48,1 c -0.09,0.26 -0.17,0.53 -0.24,0.8 0.95,-0.75 2.49,-0.35 3.78,-0.22 a 6.68,6.68 0 0 0 6.08,-2.92 5.54,5.54 0 0 0 0.67,-1.57 6.66,6.66 0 0 1 -5.75,2.45 z"
       transform="translate(-95.23,-55.03)"
       id="path39" />
  </g>
  <polygon
     points="312.07,209 317.24,201 332.49,219.34 330.5,237.85 "
     fill="#dce6f2"
     id="polygon43"
     transform="matrix(0.37730711,0,0,0.37730711,-0.00255938,0.00209761)" />
  <polygon
     points="313.86,211.81 312.07,209 312.59,208.19 317.23,201 318.26,202.24 332.48,219.34 330.61,236.75 330.49,237.85 "
     opacity="0.1"
     id="polygon45"
     transform="matrix(0.37730711,0,0,0.37730711,-0.00255938,0.00209761)" />
  <path
     d="m 128.43278,66.47229 c -1.94691,0.558415 -3.80703,2.475135 -5.42568,4.80312 a 40.994417,40.994417 0 0 0 -2.9279,5.033277 c -0.532,1.064006 -0.99986,2.086508 -1.38849,2.976953 l -0.27166,0.633876 c -0.65652,1.550732 -1.0225,2.588326 -1.0225,2.588326 0,0 -14.90363,-11.206021 -12.54546,-11.960635 0.79234,-0.252796 1.83371,-1.950678 2.86376,-4.090009 l 0.12828,-0.271661 c 0.65274,-1.373398 1.29416,-2.905265 1.8639,-4.346578 1.16588,-2.961861 2.02991,-5.535095 2.02991,-5.535095 0,0 22.63843,8.470544 16.69584,10.168426 z"
     fill="#efb7b9"
     id="path47"
     style="stroke-width:0.377307" />
  <path
     d="m 137.34855,55.673761 c 0,0 3.44104,6.225567 8.06305,5.376626 4.62201,-0.848941 2.72038,-3.342941 2.72038,-3.342941 z"
     fill="#444053"
     id="path49"
     style="stroke-width:0.377307" />
  <path
     d="m 130.68153,271.17271 c -3.04864,1.39227 -9.94204,0 -9.94204,0 l -2.90527,-0.1811 c -3.77307,-0.24148 -10.08919,-0.64897 -12.32285,-0.83008 -3.25993,-0.26789 -2.46004,-1.60355 -2.46004,-1.60355 v -8.0706 l 15.81671,-4.007 c 0,0 6.25198,2.13933 7.96496,4.007 1.62619,1.78089 2.577,0.41126 5.4785,0.9244 0.14337,0.0264 0.2943,0.0566 0.45276,0.0943 2.75435,0.6301 4.24848,0.87912 5.13138,3.16183 a 10.60233,10.60233 0 0 1 0.42636,1.4715 c 0.81498,3.67497 -4.5956,3.64856 -7.64047,5.03327 z"
     fill="#a36468"
     id="path51"
     style="stroke-width:0.377307" />
  <path
     d="m 137.89564,264.66794 a 11.824805,11.824805 0 0 1 -1.78089,0.91308 c -2.07519,0.94704 -4.0485,2.1016 -6.14633,2.99582 -2.09783,0.89422 -4.3579,1.53187 -6.62929,1.36208 -1.18851,-0.0868 -2.40344,-0.37731 -3.53914,-0.0377 a 8.1724719,8.1724719 0 0 0 -1.96577,1.09042 c -3.77307,-0.24148 -10.08919,-0.64897 -12.32285,-0.83008 -3.25993,-0.26789 -2.46004,-1.60355 -2.46004,-1.60355 v -0.94327 c 0.11697,0 0.24902,-0.034 0.39995,-0.0453 a 7.1235581,7.1235581 0 0 1 2.30157,0.34335 c 1.63751,0.44522 3.26748,0.8829 4.90499,1.32058 a 3.874944,3.874944 0 0 1 1.88654,-2.40722 6.0142753,6.0142753 0 0 1 3.04109,-0.69802 c 2.53928,0.034 4.94273,1.23757 7.47823,1.3583 a 4.1201936,4.1201936 0 0 0 2.07142,-0.34712 c 0.34712,-0.17356 0.65274,-0.42636 0.99231,-0.61878 a 7.2442964,7.2442964 0 0 1 1.7092,-0.57728 37.640157,37.640157 0 0 0 4.88613,-1.57715 c 0.45277,-0.17733 0.981,-0.49804 0.92063,-0.98099 -0.0792,-0.64143 -1.08664,-0.71689 -1.35076,-1.30549 a 0.75461421,0.75461421 0 0 1 0.0302,-0.66783 c 0.14337,0.0264 0.2943,0.0566 0.45276,0.0943 2.74303,0.6301 4.23716,0.87912 5.12006,3.16183 z"
     opacity="0.1"
     id="path53"
     style="stroke-width:0.377307" />
  <path
     d="m 127.45933,288.83069 c -3.58442,1.63751 -11.69652,0 -11.69652,0 l -3.41463,-0.19998 c -4.42204,-0.28298 -11.87008,-0.75461 -14.499915,-0.97722 -3.837213,-0.31694 -2.893945,-1.88654 -2.893945,-1.88654 v -9.51191 l 18.61256,-4.71634 c 0,0 7.35749,2.51664 9.37231,4.71634 1.91294,2.09406 3.01845,0.48295 6.44818,1.08665 0.16978,0.0302 0.34712,0.0679 0.532,0.10941 3.24107,0.75462 4.99932,1.0376 6.03691,3.72403 a 12.111558,12.111558 0 0 1 0.50182,1.73184 c 0.93572,4.32393 -5.41436,4.28998 -8.99877,5.92372 z"
     fill="#a36468"
     id="path55"
     style="stroke-width:0.377307" />
  <path
     d="m 135.94874,281.17513 a 14.047144,14.047144 0 0 1 -2.09406,1.07532 c -2.44117,1.11306 -4.76539,2.47136 -7.23297,3.52405 -2.46759,1.05269 -5.12761,1.79975 -7.80272,1.60355 -1.39603,-0.10187 -2.82603,-0.45276 -4.15037,-0.0453 a 9.6213312,9.6213312 0 0 0 -2.32044,1.29793 c -4.42204,-0.28298 -11.87008,-0.75461 -14.499915,-0.97722 -3.837213,-0.31694 -2.893945,-1.88654 -2.893945,-1.88654 v -1.10928 a 4.7163388,4.7163388 0 0 1 0.471634,-0.0528 8.2781179,8.2781179 0 0 1 2.709065,0.40372 l 5.769021,1.5545 a 4.565416,4.565416 0 0 1 2.23744,-2.83358 7.0405506,7.0405506 0 0 1 3.58064,-0.82252 c 2.98827,0.0415 5.8143,1.4564 8.7988,1.59978 a 4.8710347,4.8710347 0 0 0 2.42986,-0.40372 c 0.41126,-0.20752 0.75461,-0.50559 1.16965,-0.7282 a 8.2064295,8.2064295 0 0 1 2.01105,-0.67916 45.159887,45.159887 0 0 0 5.71997,-1.85635 c 0.53201,-0.21129 1.15456,-0.5886 1.08288,-1.15456 -0.0943,-0.75461 -1.27908,-0.84517 -1.59224,-1.53941 a 0.90931012,0.90931012 0 0 1 0.0377,-0.7848 c 0.16979,0.0302 0.34712,0.0679 0.532,0.10942 3.24107,0.72443 4.99932,1.01873 6.03692,3.70516 z"
     opacity="0.1"
     id="path57"
     style="stroke-width:0.377307" />
  <path
     d="m 119.34722,223.56033 -1.00741,23.70621 c 0,0 -1.50922,4.84085 -0.69047,6.22556 0.81876,1.38472 2.1997,2.76566 1.69788,3.58442 -0.50181,0.81876 -6.53873,9.67038 -8.48941,6.27462 -1.95067,-3.39577 -3.87494,-18.11074 -3.87494,-18.11074 l 1.79976,-18.17489 z"
     fill="#444053"
     id="path59"
     style="stroke-width:0.377307" />
  <path
     d="m 123.71644,164.49668 2.79962,3.74288 v 32.55406 c 0,0 0.81876,8.67806 0,10.47027 -0.81876,1.79221 -4.96914,5.37663 -4.96914,5.37663 l -3.49009,-17.92209 0.75462,-18.95968 z"
     fill="#444053"
     id="path61"
     style="stroke-width:0.377307" />
  <path
     d="m 119.34722,223.56033 -1.00741,23.70621 c 0,0 -1.50922,4.84085 -0.69047,6.22556 0.81876,1.38472 2.1997,2.76566 1.69788,3.58442 -0.50181,0.81876 -6.53873,9.67038 -8.48941,6.27462 -1.95067,-3.39577 -3.87494,-18.11074 -3.87494,-18.11074 l 1.79976,-18.17489 z"
     opacity="0.1"
     id="path63"
     style="stroke-width:0.377307" />
  <path
     d="m 123.71644,164.49668 2.79962,3.74288 v 32.55406 c 0,0 0.81876,8.67806 0,10.47027 -0.81876,1.79221 -4.96914,5.37663 -4.96914,5.37663 l -3.49009,-17.92209 0.75462,-18.95968 z"
     opacity="0.1"
     id="path65"
     style="stroke-width:0.377307" />
  <path
     d="m 126.51606,150.61177 v 17.60893 l -3.14297,13.70756 c 0,0 -1.00741,33.07852 -0.12828,37.10061 0.87912,4.0221 -3.01846,7.79894 -3.01846,7.79894 0,0 -2.26384,0.2528 -2.26384,2.01105 0,1.75825 -3.77307,6.79152 -3.77307,6.79152 l 0.12451,9.80999 c 0,0 1.63751,18.36354 -0.87913,21.88381 -2.51664,3.52028 0.87913,4.02587 0.87913,4.02587 -3.14297,10.3118 -18.235255,7.92345 -19.597334,6.79153 -1.362078,-1.13192 0,-23.39304 0,-23.39304 0,0 3.373126,-33.95764 6.014274,-35.46687 2.64115,-1.50923 0.12829,-3.39577 1.00741,-5.65961 0.87913,-2.26384 -0.87912,-8.42527 -0.87912,-8.42527 0,0 -0.75462,-7.29712 -2.641154,-10.81739 -1.886535,-3.52028 -1.637513,-13.20575 -1.637513,-13.20575 0,0 -5.282299,-7.04432 -6.851897,-9.80998 -1.569597,-2.76567 -2.58078,-9.9345 -2.203473,-15.34508 0.256569,-3.65611 2.177062,-8.97991 3.395764,-12.04365 0.584826,-1.46772 1.00741,-2.41854 1.00741,-2.41854 l 0.358442,0.0943 20.608511,5.39549 z"
     fill="#444053"
     id="path67"
     style="stroke-width:0.377307" />
  <path
     d="m 128.43278,66.47229 c -1.94691,0.558415 -3.80703,2.475135 -5.42568,4.80312 h -0.42258 A 13.47741,13.47741 0 0 1 110.888,64.510293 13.273664,13.273664 0 0 1 109.70325,61.812548 c 1.16588,-2.961861 2.02992,-5.535096 2.02992,-5.535096 0,0 22.6422,8.496956 16.69961,10.194838 z"
     opacity="0.1"
     id="path69"
     style="stroke-width:0.377307" />
  <path
     d="m 136.07325,57.039613 a 13.488729,13.488729 0 1 1 -25.2343,-6.610421 13.179337,13.179337 0 0 1 1.42622,-2.060097 13.650971,13.650971 0 0 1 3.10146,-2.724157 13.488729,13.488729 0 0 1 20.68775,10.40613 c 0.008,0.33203 0.0189,0.660288 0.0189,0.988545 z"
     fill="#efb7b9"
     id="path71"
     style="stroke-width:0.377307" />
  <path
     d="m 124.73894,89.329555 -0.0453,0.415038 -6.27462,-9.809985 c -0.65652,1.550732 -1.0225,2.588327 -1.0225,2.588327 0,0 -14.90363,-11.221114 -12.54546,-11.975728 0.79234,-0.252796 1.83371,-1.950678 2.86376,-4.090009 l 0.12828,-0.271661 c 1.09419,3.259933 7.45182,9.776027 10.09674,12.386992 0.30562,0.301846 0.55841,0.550869 0.75461,0.731976 l 0.40372,0.377307 0.21129,0.211292 c 0.96214,0.992318 5.02196,5.36908 5.42945,9.436451 z"
     opacity="0.1"
     id="path73"
     style="stroke-width:0.377307" />
  <path
     d="m 129.42887,122.61559 -0.6867,22.09887 -0.12074,3.93532 c 0,0 -8.13474,-0.75462 -15.72616,-1.58469 -6.11237,-0.66784 -11.87385,-1.38849 -12.76052,-1.81108 -1.131925,-0.532 -3.55801,-0.94326 -5.470957,-1.20361 -1.479043,-0.19997 -2.641149,-0.30561 -2.641149,-0.30561 0,0 -0.433904,0.12828 -1.101737,0.24902 -1.456406,0.26411 -4.014548,0.47918 -5.504911,-0.81499 -1.905401,-1.65637 3.101465,-7.67442 4.350351,-9.11951 l 0.275434,-0.31316 -0.471634,-4.3579 -1.226248,-11.30035 c 0,0 -0.754614,-6.50855 -1.886535,-9.99864 a 18.442771,18.442771 0 0 1 -0.652741,-3.03732 24.328762,24.328762 0 0 1 0.633875,-9.530776 20.782075,20.782075 0 0 0 0.679153,-4.033413 c 0.188654,-3.49009 10.84758,-16.978819 13.488729,-18.205067 a 5.5992374,5.5992374 0 0 0 2.70152,-2.693973 5.1464689,5.1464689 0 0 0 0.41126,-1.173425 c 1.13193,-4.904993 3.99569,-2.958088 3.99569,-2.958088 0.69047,3.837213 11.37958,13.994321 11.37958,13.994321 l 0.21129,0.211292 c 1.06023,1.086644 5.78412,6.187836 5.44832,10.54196 a 12.779392,12.779392 0 0 0 0.71311,4.769162 80.649394,80.649394 0 0 1 3.71647,21.129197 z"
     fill="#dce6f2"
     id="path75"
     style="stroke-width:0.377307" />
  <path
     d="m 114.28376,96.373878 c 0,0 -2.64115,6.414222 -4.62201,7.451812 -1.98086,1.0376 5.56528,2.18839 4.62201,-7.451812 z"
     opacity="0.1"
     id="path77"
     style="stroke-width:0.377307" />
  <path
     d="m 116.26463,108.35338 c 0,0 -6.03692,0.75461 -6.03692,1.88653 0,1.13193 6.03692,-1.88653 6.03692,-1.88653 z"
     opacity="0.1"
     id="path79"
     style="stroke-width:0.377307" />
  <path
     d="m 122.58452,115.71087 c 0,0 -8.77239,18.6767 -11.22489,19.24266 -2.45249,0.56596 11.22489,-19.24266 11.22489,-19.24266 z"
     opacity="0.1"
     id="path81"
     style="stroke-width:0.377307" />
  <path
     d="m 118.92841,81.398559 -7.25561,3.154288 -8.7573,-13.228387 a 5.1464689,5.1464689 0 0 0 0.41126,-1.173425 c 1.13193,-4.904993 3.99569,-2.958088 3.99569,-2.958088 0.69047,3.837213 11.37958,13.99432 11.37958,13.99432 z"
     opacity="0.1"
     id="path83"
     style="stroke-width:0.377307" />
  <path
     d="m 119.30572,80.643945 -7.25562,3.154288 -8.75729,-13.228387 a 5.1464689,5.1464689 0 0 0 0.41126,-1.173426 c 1.13192,-4.904992 3.99568,-2.958087 3.99568,-2.958087 0.69048,3.837213 11.37959,13.99432 11.37959,13.99432 z"
     fill="#dce6f2"
     id="path85"
     style="stroke-width:0.377307" />
  <path
     d="m 128.62143,148.64978 c 0,0 -8.13474,-0.75462 -15.72616,-1.58469 l 13.62079,3.56555 v 4.15038 c -0.59615,0.53955 -1.11306,0.81875 -1.44886,0.67538 -1.5696,-0.66029 -14.37917,-2.73548 -14.37917,-2.73548 0,0 -7.4405,-3.77307 -15.469595,-8.30075 a 6.1991557,6.1991557 0 0 1 -0.565961,-0.35467 8.91954,8.91954 0 0 1 -2.377035,-2.38081 c -1.482817,-2.14688 -2.207246,-4.90499 -2.520411,-7.61029 a 32.908726,32.908726 0 0 1 -0.1962,-4.67106 38.300444,38.300444 0 0 1 0.482953,-5.27852 173.59145,173.59145 0 0 1 -1.131921,-20.37459 c 0.09433,-10.564597 9.998638,-14.337668 9.998638,-14.337668 18.205072,-1.603555 12.560552,27.826398 12.560552,27.826398 0,0 -1.05268,8.30076 -1.33944,9.1497 -0.28675,0.84894 -1.3168,2.26384 -1.1772,4.2447 0.13961,1.98087 3.61838,4.35035 3.61838,4.35035 0,0 3.39576,1.59224 4.79557,3.95041 1.01873,1.73939 7.6367,4.09756 11.37581,5.78034 z"
     opacity="0.1"
     id="path87"
     style="stroke-width:0.377307" />
  <path
     d="m 134.71872,48.663395 a 4.2711164,4.2711164 0 0 1 -0.37731,1.803528 11.149425,11.149425 0 0 1 -0.67161,1.343213 6.1878365,6.1878365 0 0 1 -1.6526,2.052551 c -0.87158,0.622557 -1.97332,0.796118 -3.01846,1.048914 -1.04514,0.252795 -2.13179,0.656514 -2.72793,1.546959 a 5.4105839,5.4105839 0 0 0 -0.63765,1.848805 3.9768169,3.9768169 0 0 1 -0.75461,1.788435 1.4828169,1.4828169 0 0 1 -1.7658,0.422584 1.7846626,1.7846626 0 0 1 -0.68293,-0.879125 c -0.43013,-0.96968 -0.53955,-2.045005 -0.71311,-3.090146 -0.17356,-1.04514 -0.41881,-2.120465 -1.06023,-2.96186 -0.64142,-0.841395 -1.77712,-1.396037 -2.78453,-1.067779 a 2.6826535,2.6826535 0 0 0 -1.50923,1.463951 8.39131,8.39131 0 0 0 -0.56973,2.082735 q -0.70179,3.840987 -1.65638,7.636696 a 0.70179122,0.70179122 0 0 1 -0.12451,0.286754 0.54332223,0.54332223 0 0 1 -0.37731,0.158469 c -0.84516,0.113192 -1.65637,-0.47918 -2.50909,-0.415038 a 1.4413131,1.4413131 0 0 0 -0.26034,0.0415 13.481183,13.481183 0 0 1 1.36208,-15.39413 l 0.0679,-0.01887 a 4.0673706,4.0673706 0 0 0 1.50923,-0.950814 15.929906,15.929906 0 0 0 1.50923,-1.746931 l 0.30185,-0.377308 a 17.208977,17.208977 0 0 1 2.94299,-2.795845 3.0184568,3.0184568 0 0 1 1.00364,-0.543322 2.97318,2.97318 0 0 1 0.95081,-0.03019 23.985413,23.985413 0 0 0 3.92777,0.14715 25.200342,25.200342 0 0 1 2.75812,-0.279208 c 2.38835,0.06792 4.42581,1.754478 5.93504,3.603283 0.81121,0.947041 1.53564,2.037459 1.58469,3.275026 z"
     opacity="0.1"
     id="path89"
     style="stroke-width:0.377307" />
  <path
     d="m 109.07692,50.787634 c -0.52445,0.86026 -1.47149,1.445086 -1.82616,2.388354 -0.52069,1.369625 0.35844,3.075053 -0.449,4.297528 -0.26789,0.411265 -0.70933,0.716883 -0.86026,1.188517 -0.25657,0.796118 0.44523,1.645059 0.26412,2.463816 -0.18111,0.818756 -1.26021,1.509228 -0.97345,2.309119 a 1.5092284,1.5092284 0 0 0 0.83007,0.754614 3.2448411,3.2448411 0 0 0 1.88654,0.418811 c 1.03004,-0.169788 1.79598,-1.180971 2.84112,-1.256432 0.84894,-0.06037 1.66015,0.52823 2.50532,0.41881 a 0.56596066,0.56596066 0 0 0 0.37731,-0.162242 0.65274129,0.65274129 0 0 0 0.12451,-0.286753 q 0.95081,-3.791936 1.66015,-7.636696 a 8.2252949,8.2252949 0 0 1 0.56596,-2.082735 2.7052919,2.7052919 0 0 1 1.50923,-1.463952 c 1.00741,-0.324484 2.13933,0.226385 2.78452,1.06778 0.6452,0.841394 0.89045,1.91672 1.06401,2.96186 0.17356,1.045141 0.28298,2.120466 0.70934,3.090146 a 1.803528,1.803528 0 0 0 0.6867,0.882898 c 0.56596,0.328257 1.32812,0.06791 1.76202,-0.422584 a 3.9353131,3.9353131 0 0 0 0.75461,-1.792209 5.3879455,5.3879455 0 0 1 0.63765,-1.845031 c 0.59615,-0.890445 1.68657,-1.294164 2.72793,-1.546959 1.04137,-0.252796 2.13933,-0.430131 3.01846,-1.052687 a 6.210475,6.210475 0 0 0 1.65261,-2.048778 c 0.55841,-0.973452 1.07909,-2.029912 1.03382,-3.150514 -0.049,-1.222475 -0.77348,-2.312893 -1.54696,-3.263707 -1.50923,-1.848804 -3.55046,-3.535367 -5.93882,-3.599509 a 23.468502,23.468502 0 0 0 -2.75811,0.279207 23.608106,23.608106 0 0 1 -3.92777,-0.150923 3.0863721,3.0863721 0 0 0 -0.95081,0.03396 2.8448956,2.8448956 0 0 0 -0.99987,0.543322 17.216523,17.216523 0 0 0 -2.94676,2.792072 21.62347,21.62347 0 0 1 -1.81862,2.11292 4.0937821,4.0937821 0 0 1 -1.50923,0.954587 c -0.37731,0.105646 -0.75462,0.03018 -1.11306,0.14715 -1.11305,0.350896 -1.2602,1.803528 -1.77712,2.656242 z"
     fill="#965d7b"
     id="path91"
     style="stroke-width:0.377307" />
  <path
     d="m 145.4116,61.046614 c -3.01846,0.554642 -5.52,-1.886535 -6.90472,-3.667425 a 14.797985,14.797985 0 0 1 -1.15833,-1.705428 l 10.36085,1.954451 0.41881,0.07923 c 0,0 1.9054,2.494 -2.71661,3.339168 z"
     opacity="0.1"
     id="path93"
     style="stroke-width:0.377307" />
  <g
     opacity="0.1"
     id="g101"
     transform="matrix(0.37730711,0,0,0.37730711,-0.00255938,0.00209761)">
    <path
       d="m 376.72,214.17 a 8.33,8.33 0 0 0 -0.58,-3.84 c 0,0.1 -0.09,0.2 -0.12,0.3 -0.43,1.34 0.15,2.73 0.52,4.12 a 3,3 0 0 0 0.18,-0.58 z"
       transform="translate(-95.23,-55.03)"
       id="path95" />
    <path
       d="m 379.1,197.8 a 22.22,22.22 0 0 0 0.08,4.15 22.28,22.28 0 0 0 -0.08,-4.15 z"
       transform="translate(-95.23,-55.03)"
       id="path97" />
    <path
       d="m 448.55,188.45 a 16.4,16.4 0 0 1 -4.38,5.44 c -2.31,1.65 -5.22,2.11 -8,2.78 -2.78,0.67 -5.65,1.74 -7.23,4.1 a 14.41,14.41 0 0 0 -1.69,4.9 10.47,10.47 0 0 1 -2,4.75 c -1.15,1.3 -3.17,2 -4.67,1.12 a 4.78,4.78 0 0 1 -1.82,-2.34 c -1.13,-2.57 -1.43,-5.41 -1.88,-8.19 -0.45,-2.78 -1.12,-5.62 -2.82,-7.85 -1.7,-2.23 -4.71,-3.7 -7.38,-2.83 a 7.14,7.14 0 0 0 -4,3.88 21.8,21.8 0 0 0 -1.5,5.52 q -1.87,10.19 -4.4,20.24 a 1.73,1.73 0 0 1 -0.33,0.76 1.5,1.5 0 0 1 -1,0.43 c -2.24,0.29 -4.39,-1.27 -6.64,-1.11 -2.77,0.2 -4.8,2.88 -7.53,3.32 a 8.45,8.45 0 0 1 -5,-1.11 5.35,5.35 0 0 1 -1.83,-1.3 2.7,2.7 0 0 0 -0.37,2.33 3.9,3.9 0 0 0 2.2,2 8.45,8.45 0 0 0 5,1.11 c 2.73,-0.44 4.76,-3.12 7.53,-3.32 2.25,-0.16 4.4,1.4 6.64,1.11 a 1.5,1.5 0 0 0 1,-0.43 1.73,1.73 0 0 0 0.33,-0.76 q 2.52,-10 4.4,-20.24 a 21.8,21.8 0 0 1 1.5,-5.52 7.14,7.14 0 0 1 4,-3.88 c 2.67,-0.87 5.67,0.6 7.38,2.83 1.71,2.23 2.36,5.08 2.82,7.85 0.46,2.77 0.75,5.62 1.88,8.19 a 4.78,4.78 0 0 0 1.82,2.34 c 1.5,0.87 3.52,0.18 4.67,-1.12 a 10.47,10.47 0 0 0 2,-4.75 14.41,14.41 0 0 1 1.69,-4.9 c 1.58,-2.36 4.47,-3.42 7.23,-4.1 2.76,-0.68 5.67,-1.13 8,-2.78 a 16.4,16.4 0 0 0 4.38,-5.44 c 1.48,-2.57 2.86,-5.37 2.74,-8.34 a 10.74,10.74 0 0 0 -0.12,-1.14 19.65,19.65 0 0 1 -2.62,6.45 z"
       transform="translate(-95.23,-55.03)"
       id="path99" />
  </g>
  <path
     d="m 134.3565,50.455604 a 13.33026,13.33026 0 0 1 1.67902,5.60301 c -3.36181,-1.886535 -6.52364,-3.957951 -8.11965,-4.678608 -2.78075,-1.256433 -13.17934,-1.067779 -17.08824,-0.950814 a 13.179337,13.179337 0 0 1 1.42622,-2.060097 13.650971,13.650971 0 0 1 3.11278,-2.724157 13.496275,13.496275 0 0 1 19.00874,4.80312 z"
     opacity="0.1"
     id="path103"
     style="stroke-width:0.377307" />
  <path
     d="m 146.35487,59.446832 c -1.81485,0.558415 -4.77671,-0.520684 -7.84799,-2.067643 a 14.797985,14.797985 0 0 1 -1.15833,-1.705428 l 10.36085,1.954451 c 0.6867,0.467861 0.86026,1.135694 -1.35453,1.81862 z"
     opacity="0.1"
     id="path105"
     style="stroke-width:0.377307" />
  <path
     d="m 123.38818,37.374366 c 0,0 -9.90431,-0.56596 -12.68883,4.810666 l -0.449,4.765389 -0.75461,-0.08301 -0.15093,3.241068 c 0,0 15.13756,-0.660287 18.58238,0.894218 3.44481,1.554505 14.14901,9.387401 18.439,8.066826 4.28998,-1.320575 -0.37731,-2.546823 -0.37731,-2.546823 0,0 -5.90486,-2.501546 -5.90486,-4.463543 0,-1.961997 -1.46395,-12.326623 -16.69584,-14.684793 z"
     fill="#444053"
     id="path107"
     style="stroke-width:0.377307" />
  <path
     d="m 104.28512,214.02955 c 0,0 6.3199,6.13124 9.05538,5.65961 0,0 -7.7348,-0.66029 -9.05538,-5.65961 z"
     opacity="0.1"
     id="path109"
     style="stroke-width:0.377307" />
  <path
     d="m 102.96455,216.87068 c 0,0 0.56596,3.15428 2.07519,2.84489 1.50923,-0.30939 -2.07519,-2.84489 -2.07519,-2.84489 z"
     opacity="0.1"
     id="path111"
     style="stroke-width:0.377307" />
  <path
     d="m 112.86886,269.58802 c 0,0 -8.97236,6.98019 -7.45936,7.16884 1.513,0.18865 7.45936,-7.16884 7.45936,-7.16884 z"
     opacity="0.1"
     id="path113"
     style="stroke-width:0.377307" />
  <polygon
     points="334.8,403.87 330.96,347.33 407.96,334.8 407.96,407.7 "
     fill="#75c1ae"
     id="polygon115"
     transform="matrix(0.37730711,0,0,0.37730711,-0.00255938,0.00209761)" />
  <polygon
     points="334.8,403.87 330.96,347.33 407.96,334.8 407.96,407.7 "
     opacity="0.05"
     id="polygon117"
     transform="matrix(0.37730711,0,0,0.37730711,-0.00255938,0.00209761)" />
  <polygon
     points="407.96,407.7 407.96,334.8 500.3,341.71 495.19,405.15 "
     fill="#75c1ae"
     id="polygon119"
     transform="matrix(0.37730711,0,0,0.37730711,-0.00255938,0.00209761)" />
  <polygon
     points="407.96,407.7 407.96,334.8 500.3,341.71 495.19,405.15 "
     opacity="0.1"
     id="polygon121"
     transform="matrix(0.37730711,0,0,0.37730711,-0.00255938,0.00209761)" />
  <polygon
     points="515.39,318.94 436.35,312.55 407.96,334.8 500.3,341.71 "
     fill="#75c1ae"
     id="polygon123"
     transform="matrix(0.37730711,0,0,0.37730711,-0.00255938,0.00209761)" />
  <polygon
     points="330.96,347.33 303.08,323.03 372.4,314.59 407.96,334.8 "
     fill="#75c1ae"
     id="polygon125"
     transform="matrix(0.37730711,0,0,0.37730711,-0.00255938,0.00209761)" />
  <polygon
     points="373.08,448.1 368.3,447.6 352.62,445.99 330.96,443.77 330.96,347.33 407.95,352.57 424.84,353.73 424.84,453.4 388.77,449.7 "
     fill="#75c1ae"
     id="polygon127"
     transform="matrix(0.37730711,0,0,0.37730711,-0.00255938,0.00209761)" />
  <polygon
     points="457.33,447.16 424.84,453.4 424.84,353.73 500.3,341.71 500.3,438.91 471.39,444.46 "
     fill="#75c1ae"
     id="polygon129"
     transform="matrix(0.37730711,0,0,0.37730711,-0.00255938,0.00209761)" />
  <polygon
     points="457.33,447.16 424.84,453.4 424.84,353.73 500.3,341.71 500.3,438.91 471.39,444.46 "
     opacity="0.05"
     id="polygon131"
     transform="matrix(0.37730711,0,0,0.37730711,-0.00255938,0.00209761)" />
  <polygon
     points="411.02,377.01 303.08,368.31 330.96,347.33 424.84,353.73 "
     fill="#75c1ae"
     id="polygon133"
     transform="matrix(0.37730711,0,0,0.37730711,-0.00255938,0.00209761)" />
  <polygon
     points="411.02,377.01 303.08,368.31 330.96,347.33 424.84,353.73 "
     fill="#ffffff"
     opacity="0.1"
     id="polygon135"
     transform="matrix(0.37730711,0,0,0.37730711,-0.00255938,0.00209761)" />
  <polygon
     points="530.23,362.17 500.3,341.71 424.84,353.73 449.4,375.73 "
     fill="#75c1ae"
     id="polygon137"
     transform="matrix(0.37730711,0,0,0.37730711,-0.00255938,0.00209761)" />
  <polygon
     points="530.23,362.17 500.3,341.71 424.84,353.73 449.4,375.73 "
     fill="#ffffff"
     opacity="0.1"
     id="polygon139"
     transform="matrix(0.37730711,0,0,0.37730711,-0.00255938,0.00209761)" />
  <polygon
     points="470.5,423.07 471.39,444.46 457.33,447.16 457.33,426.39 "
     fill="#ffffff"
     opacity="0.1"
     id="polygon141"
     transform="matrix(0.37730711,0,0,0.37730711,-0.00255938,0.00209761)" />
  <polygon
     points="373.08,435.96 388.77,435.96 388.77,449.7 373.08,448.1 "
     fill="#ffffff"
     opacity="0.1"
     id="polygon143"
     transform="matrix(0.37730711,0,0,0.37730711,-0.00255938,0.00209761)" />
  <polygon
     points="352.62,440.29 368.3,440.29 368.3,447.6 352.62,445.99 "
     fill="#ffffff"
     opacity="0.1"
     id="polygon145"
     transform="matrix(0.37730711,0,0,0.37730711,-0.00255938,0.00209761)" />
  <path
     d="m 156.73081,161.74233 c -4.05605,5.18798 -17.45045,1.60356 -17.45045,1.60356 l -9.95336,-10.38349 -1.35076,-1.40736 2.64115,-4.90499 c 0,0 0.75461,0.24902 2.01482,0.6867 6.67079,2.33176 27.51323,10.04014 24.0986,14.40558 z"
     opacity="0.1"
     id="path147"
     style="stroke-width:0.377307" />
  <path
     d="m 156.35351,160.98772 c -4.05606,5.18797 -17.45046,1.60356 -17.45046,1.60356 l -9.95336,-10.3835 -1.35076,-1.40735 2.64115,-4.90499 c 0,0 0.75461,0.24902 2.01482,0.68669 6.67079,2.33176 27.51323,10.04015 24.09861,14.40559 z"
     fill="#efb7b9"
     id="path149"
     style="stroke-width:0.377307" />
  <path
     d="m 132.23981,146.58213 c -0.55087,1.58469 -1.95068,3.93155 -3.30521,5.62565 l -1.35076,-1.40735 2.64115,-4.90499 c 0,0 0.75839,0.24902 2.01482,0.68669 z"
     opacity="0.1"
     id="path151"
     style="stroke-width:0.377307" />
  <path
     d="m 99.285805,87.903334 c 0,0 -9.904311,3.773071 -9.998638,14.337666 a 173.59145,173.59145 0 0 0 1.131921,20.37459 c 0,0 -2.829803,15.75257 5.187973,20.28025 8.017779,4.52769 15.469589,8.30076 15.469589,8.30076 0,0 12.80958,2.07519 14.38295,2.73548 1.57337,0.66028 7.04055,-7.82913 6.19161,-9.24403 -0.84894,-1.4149 -12.5115,-4.90499 -13.89622,-7.26316 -1.38472,-2.35817 -4.79558,-3.94663 -4.79558,-3.94663 0,0 -3.47877,-2.37326 -3.61837,-4.35412 -0.1396,-1.98087 0.88667,-3.39577 1.1772,-4.24471 0.29052,-0.84894 1.34321,-9.1497 1.34321,-9.1497 0,0 5.62942,-29.448817 -12.575645,-27.826396 z"
     fill="#dce6f2"
     id="path153"
     style="stroke-width:0.377307" />
  <path
     d="m 103.81349,122.8797 c 0,0 -13.394402,1.50923 -12.356807,6.22557 0,0 5.089873,-4.75784 12.356807,-6.22557 z"
     opacity="0.1"
     id="path155"
     style="stroke-width:0.377307" />
  <path
     d="m 103.81349,124.76624 c 0,0 -7.602738,5.56528 -6.206701,5.94259 1.396036,0.3773 6.206701,-5.94259 6.206701,-5.94259 z"
     opacity="0.1"
     id="path157"
     style="stroke-width:0.377307" />
  <path
     d="m 107.20925,127.03008 c 0,0 -2.16951,3.90136 -0.94326,3.69761 1.22624,-0.20375 0.94326,-3.69761 0.94326,-3.69761 z"
     opacity="0.1"
     id="path159"
     style="stroke-width:0.377307" />
  <path
     d="m 246.66951,42.407643 c 0,0 -14.33767,-0.864033 -12.66243,9.194974 0,0 -0.3358,1.777117 1.2753,2.584554 0,0 0.0264,-0.754614 1.4715,-0.494272 a 6.6066474,6.6066474 0 0 0 1.55827,0.07546 3.2335219,3.2335219 0 0 0 1.90918,-0.788572 v 0 c 0,0 4.03341,-1.663924 5.60301,-8.259252 0,0 1.1621,-1.441313 1.13192,-1.811074 l -2.42231,1.037594 c 0,0 0.8263,1.746932 0.17356,3.199564 0,0 -0.0755,-3.135422 -0.54332,-3.063733 -0.0943,0 -1.25643,0.607464 -1.25643,0.607464 0,0 1.42244,3.041095 0.34712,5.255888 0,0 0.40749,-3.750432 -0.79235,-5.03705 l -1.70543,0.996091 c 0,0 1.66393,3.142968 0.53578,5.708657 0,0 0.29053,-3.935314 -0.89422,-5.46718 l -1.54696,1.203609 c 0,0 1.56583,3.101465 0.61124,5.229477 0,0 -0.12451,-4.580509 -0.94704,-4.927631 0,0 -1.35076,1.19229 -1.5545,1.68279 0,0 1.06777,2.263842 0.40371,3.437267 0,0 -0.40749,-3.052414 -0.75461,-3.067506 0,0 -1.34699,2.022366 -1.48659,3.395764 a 7.3423963,7.3423963 0 0 1 1.15833,-3.59951 4.0409591,4.0409591 0 0 0 -2.06009,1.067779 c 0,0 0.20751,-1.429994 2.39212,-1.554505 0,0 1.13192,-1.53564 1.41113,-1.629967 0,0 -2.17329,-0.181108 -3.49009,0.403719 0,0 1.15833,-1.346987 3.89004,-0.754615 l 1.50923,-1.245113 c 0,0 -2.85999,-0.377307 -4.07492,0.0415 0,0 1.39603,-1.192291 4.48618,-0.324484 l 1.66015,-0.992318 c 0,0 -2.4374,-0.52823 -3.89004,-0.335803 0,0 1.53187,-0.826303 4.37677,0.06791 l 1.18851,-0.532003 c 0,0 -1.78843,-0.350896 -2.30911,-0.407492 -0.52069,-0.0566 -0.55087,-0.199973 -0.55087,-0.199973 a 6.1727442,6.1727442 0 0 1 3.35426,0.377307 c 0,0 2.54682,-0.916856 2.494,-1.075325 z"
     fill="#75c1ae"
     id="path161"
     style="stroke-width:0.377307" />
  <path
     d="m 290.23339,92.717773 c 0,0 -14.33767,-0.864034 -12.66243,9.194977 0,0 -0.3358,1.77711 1.2753,2.58455 0,0 0.0264,-0.75461 1.47527,-0.49427 a 6.6066474,6.6066474 0 0 0 1.55828,0.0755 3.2297488,3.2297488 0 0 0 1.88653,-0.7848 v 0 c 0,0 4.03719,-1.6677 5.60679,-8.263025 0,0 1.15833,-1.43754 1.11305,-1.807301 l -2.42231,1.033822 c 0,0 0.8263,1.746932 0.17733,3.199564 0,0 -0.0792,-3.135422 -0.54332,-3.063734 -0.0943,0 -1.2602,0.607465 -1.2602,0.607465 0,0 1.42622,3.044868 0.35089,5.255889 0,0 0.40749,-3.750434 -0.79612,-5.037051 l -1.68656,0.984771 c 0,0 1.66392,3.142968 0.53578,5.70866 0,0 0.29052,-3.935316 -0.89422,-5.467183 l -1.54319,1.207383 c 0,0 1.56205,3.09769 0.61124,5.2257 0,0 -0.12451,-4.580505 -0.94704,-4.927628 0,0 -1.35076,1.192291 -1.55828,1.68279 0,0 1.07155,2.263838 0.40749,3.437268 0,0 -0.40749,-3.05241 -0.75461,-3.06751 0,0 -1.34699,2.02237 -1.48659,3.39577 a 7.3650347,7.3650347 0 0 1 1.1621,-3.599513 4.0598245,4.0598245 0 0 0 -2.06387,1.067783 c 0,0 0.2113,-1.429998 2.3959,-1.554509 0,0 1.11306,-1.53564 1.41113,-1.629967 0,0 -2.17329,-0.181107 -3.49009,0.403719 0,0 1.15834,-1.346987 3.88627,-0.735749 l 1.50922,-1.245114 c 0,0 -2.86376,-0.377307 -4.07491,0.0415 0,0 1.39603,-1.19229 4.48618,-0.324484 l 1.66015,-0.992318 c 0,0 -2.44118,-0.524456 -3.89381,-0.335803 0,0 1.53564,-0.826302 4.38054,0.06791 l 1.18851,-0.532003 c 0,0 -1.78843,-0.350895 -2.31289,-0.407491 -0.52446,-0.0566 -0.55087,-0.199973 -0.55087,-0.199973 a 6.1840635,6.1840635 0 0 1 3.35804,0.377307 c 0,0 2.55059,-0.924402 2.50532,-1.082871 z"
     fill="#75c1ae"
     opacity="0.1"
     id="path163"
     style="stroke-width:0.377307" />
  <path
     d="m 203.13204,83.786913 c 0,0 3.30144,-13.99432 -6.90095,-14.04337 0,0 -1.69411,-0.633876 -2.76188,0.814983 0,0 0.7282,0.154696 0.23393,1.53564 a 6.7160665,6.7160665 0 0 0 -0.33958,1.509229 3.241068,3.241068 0 0 0 0.44899,2.011047 v 0 c 0,0 0.95459,4.26357 7.16884,6.934904 0,0 1.22247,1.38849 1.59224,1.403583 l -0.6037,-2.561916 c 0,0 -1.86389,0.516911 -3.18447,-0.377307 0,0 3.10524,0.456542 3.10901,0 0,-0.09433 -0.3773,-1.343213 -0.3773,-1.343213 0,0 -3.24107,0.882899 -5.2408,-0.554642 0,0 3.62592,1.041368 5.10119,0.07923 l -0.67915,-1.856351 c 0,0 -3.39576,1.10551 -5.71998,-0.445222 0,0 3.82967,0.95836 5.54264,0.05282 l -0.9244,-1.728067 c 0,0 -3.3203,1.011183 -5.25589,-0.290526 0,0 4.52769,0.656514 5.01819,-0.09055 0,0 -0.94327,-1.53564 -1.39226,-1.822393 0,0 -2.39968,0.671606 -3.45614,-0.184881 0,0 3.07506,0.116965 3.14674,-0.207519 0,0 -1.76202,-1.67147 -3.10523,-2.048777 a 7.3952193,7.3952193 0 0 1 3.35426,1.758251 4.0711437,4.0711437 0 0 0 -0.70179,-2.214793 c 0,0 1.37339,0.452769 1.13192,2.64115 0,0 1.32057,1.358305 1.36208,1.667697 0,0 0.54709,-2.109147 0.1962,-3.508956 0,0 1.13192,1.373398 0.0641,3.957952 l 0.9659,1.716747 c 0,0 0.87536,-2.754342 0.65274,-4.022094 0,0 0.9395,1.577144 -0.44522,4.474862 l 0.69802,1.807301 c 0,0 0.93195,-2.316665 0.99232,-3.773071 0,0 0.55464,1.652606 -0.81499,4.305075 l 0.32449,1.260205 c 0,0 0.64897,-1.701655 0.79234,-2.207246 0.14338,-0.505592 0.29053,-0.509365 0.29053,-0.509365 a 6.1802904,6.1802904 0 0 1 -0.93949,3.244841 c 0,0 0.49427,2.633604 0.65651,2.614738 z"
     fill="#75c1ae"
     opacity="0.1"
     id="path165"
     style="stroke-width:0.377307" />
  <path
     d="m 171.73254,88.556075 c 0,0 -11.51541,-8.613921 -15.63183,0.716884 0,0 -1.25643,1.301709 -0.35467,2.859988 0,0 0.43013,-0.607465 1.50923,0.399945 a 6.6066474,6.6066474 0 0 0 1.2602,0.920629 3.237295,3.237295 0 0 0 2.02614,0.377308 v 0 c 0,0 4.28621,0.826302 9.22139,-3.818348 0,0 1.76202,-0.565961 1.92804,-0.897991 l -2.59965,-0.456542 c 0,0 -0.27166,1.912947 -1.6111,2.769434 0,0 1.65638,-2.663788 1.22625,-2.856214 -0.0868,-0.0415 -1.38472,-0.188654 -1.38472,-0.188654 0,0 -0.48295,3.327849 -2.59587,4.584281 0,0 2.40345,-2.909037 2.10537,-4.64465 l -1.97331,-0.105646 c 0,0 -0.33581,3.542914 -2.6902,5.067234 0,0 2.40344,-3.127876 2.26384,-5.059688 l -1.95445,0.158469 c 0,0 -0.39617,3.444814 -2.36194,4.697473 0,0 2.41099,-3.893809 1.91672,-4.633331 0,0 -1.78467,0.252796 -2.22611,0.547095 0,0 -0.34335,2.467589 -1.55074,3.093919 0,0 1.33944,-2.773207 1.06778,-2.965634 0,0 -2.23743,0.947041 -3.11655,2.026139 a 7.3688078,7.3688078 0 0 1 2.95054,-2.369489 4.0635975,4.0635975 0 0 0 -2.30912,-0.241476 c 0,0 0.95836,-1.079098 2.85244,0.01887 0,0 1.77334,-0.667833 2.07519,-0.584826 0,0 -1.71675,-1.346986 -3.1392,-1.580917 0,0 1.71298,-0.490499 3.65611,1.509229 l 1.95822,-0.199973 c 0,0 -2.17706,-1.886535 -3.42595,-2.203473 0,0 1.8224,-0.230158 3.924,2.192154 l 1.93181,0.08678 c 0,0 -1.74693,-1.78089 -3.06373,-2.422312 0,0 1.73184,0.150923 3.61837,2.463815 l 1.28662,0.207519 c 0,0 -1.30171,-1.275298 -1.7092,-1.607328 -0.40749,-0.33203 -0.3509,-0.471634 -0.3509,-0.471634 a 6.1991557,6.1991557 0 0 1 2.59965,2.158197 c 0,0 2.62228,0.607464 2.67133,0.452768 z"
     fill="#75c1ae"
     opacity="0.1"
     id="path167"
     style="stroke-width:0.377307" />
  <path
     d="m 210.07072,8.5254651 c 0,0 -11.51542,-8.61769427 -15.63184,0.7168835 0,0 -1.25643,1.3017094 -0.35466,2.8599874 0,0 0.43013,-0.607464 1.50922,0.399946 a 6.7122934,6.7122934 0 0 0 1.26398,0.916856 3.2335219,3.2335219 0 0 0 2.02614,0.377307 v 0 c 0,0 4.28621,0.826303 9.22139,-3.8221206 0,0 1.76202,-0.5621876 1.92426,-0.8979909 L 207.42957,8.627338 c 0,0 -0.26789,1.912947 -1.6111,2.769434 0,0 1.66015,-2.663788 1.23002,-2.8562146 -0.0868,-0.041504 -1.38472,-0.1886535 -1.38472,-0.1886535 0,0 -0.49804,3.3353951 -2.61096,4.5842811 0,0 2.39967,-2.909038 2.10537,-4.6446503 l -1.97332,-0.105646 c 0,0 -0.33957,3.5429133 -2.6902,5.0634613 0,0 2.40345,-3.127876 2.26385,-5.0596882 l -1.95068,0.158469 c 0,0 -0.39995,3.4485872 -2.36572,4.7012462 0,0 2.41477,-3.893809 1.9205,-4.6333309 0,0 -1.78467,0.2527957 -2.22612,0.5470953 0,0 -0.34335,2.4675886 -1.55073,3.0939186 0,0 1.33944,-2.7732076 1.06778,-2.9694073 0,0 -2.23743,0.9508143 -3.11656,2.0299123 a 7.3348501,7.3348501 0 0 1 2.95055,-2.3694887 4.037186,4.037186 0 0 0 -2.3129,-0.2414765 c 0,0 0.96214,-1.0790984 2.85622,0.018865 0,0 1.77334,-0.6716066 2.07519,-0.584826 0,0 -1.71675,-1.3469864 -3.1392,-1.5846898 0,0 1.7092,-0.4867262 3.65233,1.5092284 l 1.95823,-0.1999728 c 0,0 -2.17329,-1.8865355 -3.42595,-2.2072465 0,0 1.82239,-0.2263843 3.92777,2.1959273 l 1.93181,0.083008 c 0,0 -1.74693,-1.7808896 -3.06751,-2.4185386 0,0 1.73562,0.1509229 3.62215,2.4638154 l 1.28284,0.2075189 c 0,0 -1.30548,-1.2602057 -1.71297,-1.5846898 -0.40749,-0.3244841 -0.35089,-0.4678608 -0.35089,-0.4678608 a 6.1878365,6.1878365 0 0 1 2.59964,2.1581966 c 0,0 2.62229,0.5735068 2.68643,0.43013 z"
     fill="#75c1ae"
     opacity="0.1"
     id="path169"
     style="stroke-width:0.377307" />
  <path
     d="m 254.07227,19.44096 c 0,0 -4.60314,-13.6245599 -13.28498,-8.270572 0,0 -1.77334,0.377307 -1.91295,2.154424 0,0 0.69802,-0.256569 1.00741,1.177198 a 6.7915279,6.7915279 0 0 0 0.51691,1.47527 3.2674795,3.2674795 0 0 0 1.44886,1.467725 v 0 c 0,0 3.06374,3.112784 9.76471,2.082735 0,0 1.76957,0.535776 2.09405,0.350896 l -1.88653,-1.852578 c 0,0 -1.30548,1.422448 -2.89772,1.365852 0,0 2.87885,-1.25266 2.64115,-1.656378 -0.049,-0.07924 -1.03382,-0.935722 -1.03382,-0.935722 0,0 -2.28648,2.463815 -4.73898,2.301573 0,0 3.62592,-1.033821 4.36544,-2.641149 l -1.56205,-1.20361 c 0,0 -2.28648,2.724157 -5.08987,2.64115 0,0 3.77307,-1.211156 4.72766,-2.8864 l -1.69788,-0.977225 c 0,0 -2.26385,2.614738 -4.6107,2.531731 0,0 4.19566,-1.837486 4.20698,-2.727931 0,0 -1.6111,-0.803664 -2.14311,-0.81121 0,0 -1.68279,1.837485 -3.01845,1.67147 0,0 2.67133,-1.528093 2.55814,-1.841258 0,0 -2.37704,-0.486726 -3.71648,-0.09433 a 7.3537155,7.3537155 0 0 1 3.77307,-0.28298 4.0711437,4.0711437 0 0 0 -1.76957,-1.509229 c 0,0 1.40359,-0.343349 2.34308,1.63374 0,0 1.84126,0.456542 2.03746,0.694245 0,0 -0.64897,-2.078962 -1.68656,-3.082599 0,0 1.68656,0.569734 2.14687,3.327849 l 1.72807,0.943267 c 0,0 -0.71311,-2.795845 -1.57337,-3.773071 0,0 1.63374,0.845168 1.98841,4.033413 l 1.54696,1.165879 c 0,0 -0.43013,-2.460042 -1.15456,-3.73534 0,0 1.34321,1.109283 1.58469,4.086236 l 0.93949,0.897991 c 0,0 -0.34712,-1.788436 -0.4905,-2.294027 -0.14337,-0.505592 -0.0264,-0.53955 -0.0264,-0.53955 a 6.2217942,6.2217942 0 0 1 0.91686,3.252388 c 0,0 1.82616,1.958224 1.95822,1.860124 z"
     fill="#75c1ae"
     opacity="0.1"
     id="path171"
     style="stroke-width:0.377307" />
  <path
     d="m 224.03108,20.112566 c 0,0 -14.29994,-1.592236 -13.11897,8.553552 0,0 -0.42635,1.758252 1.13192,2.64115 0,0 0.0642,-0.754614 1.50923,-0.415038 a 6.9424507,6.9424507 0 0 0 1.55451,0.154696 3.2448411,3.2448411 0 0 0 1.94313,-0.690472 v 0 c 0,0 4.11642,-1.460178 6.03691,-7.968726 0,0 1.23002,-1.377171 1.20361,-1.750705 l -2.47136,0.913083 c 0,0 0.75462,1.784663 0,3.203338 0,0 0.0792,-3.135422 -0.37731,-3.086372 -0.0943,0 -1.28661,0.543322 -1.28661,0.543322 0,0 1.26775,3.112783 0.083,5.282299 0,0 0.59615,-3.727794 -0.53954,-5.071007 l -1.75448,0.905537 c 0,0 1.50923,3.225976 0.24525,5.731295 0,0 0.4905,-3.916448 -0.61501,-5.504911 l -1.60356,1.131921 c 0,0 1.40358,3.173153 0.34335,5.252115 0,0 0.10942,-4.580508 -0.69424,-4.969134 0,0 -1.41113,1.131921 -1.64129,1.599782 0,0 0.95459,2.301573 0.23393,3.45236 0,0 -0.2528,-3.067507 -0.58483,-3.097691 0,0 -1.44886,1.950677 -1.66015,3.327848 a 7.3461693,7.3461693 0 0 1 1.34322,-3.53914 4.0598245,4.0598245 0 0 0 -2.11292,0.962133 c 0,0 0.2792,-1.414902 2.46758,-1.429994 0,0 1.18852,-1.475271 1.50923,-1.554505 0,0 -2.16197,-0.290527 -3.50895,0.226384 0,0 1.22624,-1.290391 3.92022,-0.539549 l 1.58846,-1.165879 c 0,0 -2.87131,-0.581053 -4.08624,-0.203746 0,0 1.45641,-1.131921 4.49751,-0.09433 l 1.7092,-0.90931 c 0,0 -2.411,-0.648968 -3.87117,-0.532003 0,0 1.57337,-0.754614 4.36921,0.290526 l 1.21493,-0.471634 c 0,0 -1.76957,-0.441449 -2.29025,-0.524456 -0.52069,-0.08301 -0.53955,-0.226385 -0.53955,-0.226385 a 6.2067019,6.2067019 0 0 1 3.33539,0.543323 c 0,0 2.54305,-0.811211 2.51664,-0.96968 z"
     fill="#75c1ae"
     opacity="0.1"
     id="path173"
     style="stroke-width:0.377307" />
  <path
     d="m 349.14612,131.105 c 0,0 -14.2924,-1.59224 -13.11143,8.54223 0,0 -0.42635,1.75825 1.13193,2.64115 0,0 0.0641,-0.75461 1.50922,-0.41881 a 6.5274129,6.5274129 0 0 0 1.55451,0.1547 3.2184296,3.2184296 0 0 0 1.94313,-0.69048 v 0 c 0,0 4.11642,-1.46018 6.01805,-7.96495 0,0 1.23002,-1.38094 1.20361,-1.7507 l -2.47136,0.90931 c 0,0 0.75461,1.78843 0,3.20711 0,0 0.0792,-3.1392 -0.37731,-3.08638 -0.0943,0 -1.28662,0.53955 -1.28662,0.53955 0,0 1.26776,3.11279 0.083,5.2823 0,0 0.59615,-3.72402 -0.53955,-5.07101 l -1.75448,0.90931 c 0,0 1.50923,3.22598 0.24903,5.7313 0,0 0.48672,-3.91645 -0.61879,-5.50868 l -1.60355,1.13192 c 0,0 1.40358,3.17315 0.34335,5.24834 0,0 0.10942,-4.58051 -0.69425,-4.96536 0,0 -1.40735,1.13192 -1.64128,1.59978 0,0 0.95836,2.30157 0.23393,3.45236 0,0 -0.2528,-3.06751 -0.58483,-3.09769 0,0 -1.44886,1.95068 -1.66015,3.32785 a 7.3461693,7.3461693 0 0 1 1.34321,-3.53914 4.0258668,4.0258668 0 0 0 -2.11292,0.96213 c 0,0 0.27921,-1.41868 2.46759,-1.43377 0,0 1.19229,-1.47527 1.50923,-1.55073 0,0 -2.16197,-0.2943 -3.50896,0.22261 0,0 1.22625,-1.28662 3.924,-0.53577 l 1.58469,-1.16588 c 0,0 -2.83735,-0.53578 -4.07115,-0.16602 0,0 1.45641,-1.13192 4.4975,-0.0981 l 1.70921,-0.90554 c 0,0 -2.411,-0.64896 -3.87118,-0.532 0,0 1.57338,-0.75461 4.36922,0.29053 l 1.21493,-0.47541 c 0,0 -1.76957,-0.44145 -2.29025,-0.52068 -0.52069,-0.0792 -0.53955,-0.22639 -0.53955,-0.22639 a 6.1840635,6.1840635 0 0 1 3.33539,0.53955 c 0,0 2.5506,-0.8263 2.51287,-0.98854 z"
     fill="#75c1ae"
     opacity="0.1"
     id="path175"
     style="stroke-width:0.377307" />
  <path
     d="m 370.99597,144.45412 c 0,0 -14.29239,-1.58846 -13.11142,8.54224 0,0 -0.42258,1.75825 1.13192,2.64115 0,0 0.0641,-0.75462 1.50923,-0.41504 a 6.6594704,6.6594704 0 0 0 1.55073,0.15092 3.2599334,3.2599334 0 0 0 1.93559,-0.6867 v 0 c 0,0 4.11264,-1.46018 6.01427,-7.96872 0,0 1.2338,-1.37718 1.20361,-1.75071 l -2.47136,0.90931 c 0,0 0.75461,1.78844 0,3.20711 0,0 0.0792,-3.13542 -0.37731,-3.08637 -0.0943,0 -1.28661,0.53955 -1.28661,0.53955 0,0 1.26775,3.11278 0.083,5.2823 0,0 0.59615,-3.72402 -0.53955,-5.06724 l -1.75447,0.90554 c 0,0 1.50922,3.22598 0.24902,5.7313 0,0 0.48672,-3.91645 -0.61878,-5.50492 l -1.60356,1.13193 c 0,0 1.40358,3.17315 0.34712,5.25211 0,0 0.10565,-4.58428 -0.69802,-4.96913 0,0 -1.40735,1.13192 -1.64128,1.59978 0,0 0.95836,2.30157 0.23393,3.45236 0,0 -0.2528,-3.06751 -0.58483,-3.09769 0,0 -1.44886,1.95067 -1.65638,3.32785 a 7.3650347,7.3650347 0 0 1 1.33944,-3.53915 4.0598245,4.0598245 0 0 0 -2.11291,0.96214 c 0,0 0.28298,-1.41868 2.47136,-1.43 0,0 1.18851,-1.47527 1.50922,-1.5545 0,0 -2.16196,-0.29053 -3.50895,0.22638 0,0 1.22625,-1.29039 3.92399,-0.53955 l 1.58469,-1.16587 c 0,0 -2.83735,-0.53578 -4.07114,-0.16602 0,0 1.4564,-1.13192 4.4975,-0.0943 l 1.7092,-0.90931 c 0,0 -2.41099,-0.64897 -3.87117,-0.532 0,0 1.57337,-0.75461 4.36922,0.29053 l 1.21493,-0.47164 c 0,0 -1.76958,-0.44145 -2.28649,-0.52445 -0.51691,-0.083 -0.54332,-0.22639 -0.54332,-0.22639 a 6.2067019,6.2067019 0 0 1 3.3354,0.54332 c 0,0 2.56191,-0.83385 2.52418,-0.99609 z"
     fill="#75c1ae"
     opacity="0.1"
     id="path177"
     style="stroke-width:0.377307" />
  <path
     d="m 322.4856,32.012832 c 0,0 -11.51542,-8.613921 -15.63184,0.716884 0,0 -1.25643,1.301709 -0.35467,2.859988 0,0 0.43013,-0.607465 1.50923,0.399945 a 6.6066474,6.6066474 0 0 0 1.26021,0.92063 3.241068,3.241068 0 0 0 2.02614,0.377307 v 0 c 0,0 4.28621,0.826302 9.22516,-3.818348 0,0 1.75825,-0.565961 1.92426,-0.897991 l -2.5921,-0.467861 c 0,0 -0.27166,1.912947 -1.6111,2.769434 0,0 1.65638,-2.663788 1.22625,-2.856214 -0.0868,-0.0415 -1.38094,-0.188654 -1.38094,-0.188654 0,0 -0.48673,3.327849 -2.59965,4.584281 0,0 2.40345,-2.909038 2.10537,-4.64465 l -1.97331,-0.105646 c 0,0 -0.33581,3.542914 -2.6902,5.067234 0,0 2.40722,-3.127876 2.26384,-5.059688 l -1.95445,0.158469 c 0,0 -0.37731,3.444814 -2.36194,4.697473 0,0 2.41476,-3.893809 1.91672,-4.633331 0,0 -1.78467,0.252796 -2.22611,0.547095 0,0 -0.33958,2.467589 -1.54696,3.093919 0,0 1.33566,-2.773208 1.064,-2.965634 0,0 -2.23743,0.947041 -3.11655,2.026139 a 7.3688078,7.3688078 0 0 1 2.95054,-2.369489 4.0635975,4.0635975 0 0 0 -2.30912,-0.241476 c 0,0 0.96213,-1.079098 2.85621,0.01887 0,0 1.76957,-0.667833 2.07142,-0.584826 0,0 -1.71675,-1.346986 -3.1392,-1.580917 0,0 1.71298,-0.490499 3.65611,1.509229 l 1.95822,-0.199973 c 0,0 -2.17329,-1.886535 -3.42595,-2.203473 0,0 1.8224,-0.230158 3.924,2.192154 l 1.93558,0.08678 c 0,0 -1.7507,-1.78089 -3.0675,-2.422312 0,0 1.73561,0.150923 3.61837,2.463815 l 1.28662,0.207519 c 0,0 -1.30171,-1.275298 -1.7092,-1.607328 -0.40749,-0.33203 -0.34712,-0.441449 -0.34712,-0.441449 a 6.2029288,6.2029288 0 0 1 2.59587,2.158196 c 0,0 2.61474,0.588599 2.66379,0.433903 z"
     fill="#75c1ae"
     opacity="0.1"
     id="path179"
     style="stroke-width:0.377307" />
  <path
     d="m 331.3825,94.20059 c 0,0 -3.96927,-13.82076 -12.89636,-8.859171 0,0 -1.78843,0.275434 -2.01105,2.06387 0,0 0.70934,-0.222612 0.95459,1.222475 a 6.689655,6.689655 0 0 0 0.45277,1.509228 3.241068,3.241068 0 0 0 1.38094,1.539413 v 0 c 0,0 2.92036,3.244841 9.65907,2.520411 0,0 1.74315,0.611238 2.07518,0.445223 l -1.78466,-1.939359 c 0,0 -1.36962,1.365852 -2.95431,1.237568 0,0 2.9279,-1.131922 2.70152,-1.53564 -0.0453,-0.08301 -0.98855,-0.984772 -0.98855,-0.984772 0,0 -2.39213,2.361943 -4.83708,2.086508 0,0 3.6712,-0.867806 4.47864,-2.429857 l -1.50923,-1.275298 c 0,0 -2.40722,2.618511 -5.20306,2.414765 0,0 3.80325,-1.045141 4.85217,-2.671334 l -1.65261,-1.052687 c 0,0 -2.3959,2.509092 -4.72011,2.320439 0,0 4.27489,-1.648832 4.32771,-2.535504 0,0 -1.57714,-0.875353 -2.10915,-0.905537 0,0 -1.76202,1.758251 -3.10146,1.531867 0,0 2.73925,-1.407356 2.64115,-1.724294 0,0 -2.3544,-0.592372 -3.70893,-0.264115 a 7.3612616,7.3612616 0 0 1 3.77307,-0.109419 4.0485052,4.0485052 0 0 0 -1.69788,-1.58469 c 0,0 1.41868,-0.28298 2.26384,1.735613 0,0 1.81485,0.535776 2.0035,0.784799 0,0 -0.55464,-2.109147 -1.54696,-3.154288 0,0 1.66016,0.641423 1.99596,3.418403 l 1.68279,1.022502 c 0,0 -0.5886,-2.829803 -1.40358,-3.825894 0,0 1.59223,0.916856 1.8073,4.116421 l 1.50923,1.233794 c 0,0 -0.32071,-2.475135 -0.98478,-3.773071 0,0 1.29417,1.169652 1.39981,4.150378 l 0.89799,0.943268 c 0,0 -0.26411,-1.803528 -0.3773,-2.316666 -0.11319,-0.513138 0,-0.584826 0,-0.584826 a 6.1840635,6.1840635 0 0 1 0.77348,3.290118 c 0,0 1.72052,2.029912 1.85635,1.939359 z"
     fill="#75c1ae"
     opacity="0.1"
     id="path181"
     style="stroke-width:0.377307" />
  <path
     d="m 242.93417,125.34352 c 0,0 -7.70839,-12.14174 -14.8659,-4.87481 0,0 -1.63752,0.75461 -1.35076,2.54682 0,0 0.62255,-0.41503 1.26398,0.90554 a 6.4594976,6.4594976 0 0 0 0.85271,1.30548 3.2222027,3.2222027 0 0 0 1.75448,1.08665 v 0 c 0,0 3.71647,2.29402 9.97977,-0.30185 0,0 1.84503,0.0981 2.11669,-0.15469 l -2.26384,-1.35831 c 0,0 -0.93195,1.69788 -2.49023,2.01859 0,0 2.49778,-1.88653 2.16197,-2.23365 -0.0641,-0.0679 -1.22624,-0.66407 -1.22624,-0.66407 0,0 -1.63374,2.93545 -4.05606,3.36181 0,0 3.2788,-1.86767 3.61838,-3.59574 l -1.8073,-0.79611 c 0,0 -1.57337,3.18824 -4.31262,3.77307 0,0 3.35803,-2.07142 3.90513,-3.92777 l -1.88654,-0.54332 c 0,0 -1.59223,3.0826 -3.87494,3.55423 0,0 3.63724,-2.78453 3.43727,-3.65233 0,0 -1.75826,-0.39617 -2.26385,-0.27544 0,0 -1.19606,2.18461 -2.54682,2.34308 0,0 2.23366,-2.12046 2.04878,-2.39967 0,0 -2.42609,0.0943 -3.63347,0.79234 a 7.3423963,7.3423963 0 0 1 3.59951,-1.16965 4.0485052,4.0485052 0 0 0 -2.07142,-1.04514 c 0,0 1.27907,-0.66783 2.64115,1.03005 0,0 1.88654,0 2.14688,0.18865 0,0 -1.13192,-1.88653 -2.37326,-2.5921 0,0 1.77334,0.15093 2.87508,2.72039 l 1.9054,0.50559 c 0,0 -1.36208,-2.54682 -2.42231,-3.27503 0,0 1.78466,0.43013 2.89017,3.44482 l 1.78089,0.75461 c 0,0 -1.00364,-2.28271 -2.01105,-3.35049 0,0 1.5696,0.75462 2.5091,3.58819 l 1.13192,0.65275 c 0,0 -0.75462,-1.65638 -1.02251,-2.11292 -0.26788,-0.45655 -0.16224,-0.56219 -0.16224,-0.56219 a 6.1878365,6.1878365 0 0 1 1.66393,2.93922 c 0,0 2.25629,1.50168 2.35817,1.3734 z"
     fill="#75c1ae"
     opacity="0.1"
     id="path183"
     style="stroke-width:0.377307" />
  <path
     d="m 293.59519,63.306684 c 0,0 -7.33108,-12.3719 -14.71498,-5.33135 0,0 -1.66015,0.716884 -1.42622,2.50532 0,0 0.63011,-0.399946 1.2338,0.939494 a 6.5198668,6.5198668 0 0 0 0.81121,1.335667 3.2033373,3.2033373 0 0 0 1.72052,1.131922 v 0 c 0,0 3.64101,2.407219 9.98354,0 0,0 1.84126,0.154696 2.12047,-0.09055 l -2.21479,-1.426221 c 0,0 -0.981,1.663924 -2.5506,1.939359 0,0 2.55437,-1.822394 2.23366,-2.165743 -0.0679,-0.07169 -1.20738,-0.705564 -1.20738,-0.705564 0,0 -1.7243,2.886399 -4.15038,3.237295 0,0 3.33539,-1.765798 3.72402,-3.478772 l -1.78089,-0.837622 c 0,0 -1.67147,3.142968 -4.42958,3.644787 0,0 3.42217,-1.96577 4.02586,-3.803256 l -1.8639,-0.603691 c 0,0 -1.69033,3.018457 -3.98436,3.433495 0,0 3.72025,-2.671335 3.54669,-3.542914 0,0 -1.74316,-0.452769 -2.26384,-0.347123 0,0 -1.26398,2.146878 -2.61852,2.263843 0,0 2.2978,-2.045005 2.12424,-2.331758 0,0 -2.42985,0.01886 -3.6561,0.679153 a 7.3650347,7.3650347 0 0 1 3.63347,-1.05646 4.0560514,4.0560514 0 0 0 -2.04124,-1.109283 c 0,0 1.30171,-0.630103 2.64115,1.109283 0,0 1.88654,0.06414 2.13933,0.256569 0,0 -1.06777,-1.886536 -2.29025,-2.663788 0,0 1.7658,0.203745 2.7883,2.807164 l 1.88654,0.565961 c 0,0 -1.27908,-2.588327 -2.32044,-3.350487 0,0 1.77334,0.486726 2.78452,3.531595 l 1.75448,0.818756 c 0,0 -0.93195,-2.312893 -1.88653,-3.395764 0,0 1.54318,0.803664 2.39967,3.663652 l 1.10551,0.686699 c 0,0 -0.70934,-1.679017 -0.95836,-2.143104 -0.24902,-0.464088 -0.14338,-0.565961 -0.14338,-0.565961 a 6.1991557,6.1991557 0 0 1 1.57337,2.988272 c 0,0 2.16197,1.53564 2.27139,1.411129 z"
     fill="#75c1ae"
     id="path185"
     style="stroke-width:0.377307" />
  <path
     d="m 247.21283,89.322009 c 0,0 0.37731,-14.375401 -9.61001,-12.349262 0,0 -1.78844,-0.275434 -2.54305,1.362079 0,0 0.75461,0 0.54332,1.452632 a 6.6255128,6.6255128 0 0 0 -0.0226,1.562052 3.2259758,3.2259758 0 0 0 0.84894,1.886535 v 0 c 0,0 1.79976,3.976817 8.44414,5.327576 0,0 1.47527,1.113056 1.84503,1.052687 l -1.13192,-2.384581 c 0,0 -1.71675,0.882899 -3.19202,0.282981 0,0 3.13165,-0.184881 3.04487,-0.645196 0,-0.09433 -0.64897,-1.24134 -0.64897,-1.24134 0,0 -2.99582,1.528094 -5.2408,0.524457 0,0 3.77307,0.28298 5.00687,-0.95836 l -1.05269,-1.671471 c 0,0 -3.08637,1.765798 -5.68979,0.72443 0,0 3.94286,0.158469 5.43699,-1.075325 l -1.25643,-1.509229 c 0,0 -3.04487,1.667698 -5.20306,0.784799 0,0 4.57296,-0.275434 4.90499,-1.109283 0,0 -1.23757,-1.309255 -1.73561,-1.509228 0,0 -2.21102,1.131921 -3.41841,0.520684 0,0 3.01846,-0.505592 3.03733,-0.841395 0,0 -2.06387,-1.279071 -3.45614,-1.373398 a 7.3461693,7.3461693 0 0 1 3.64102,1.041368 4.0560514,4.0560514 0 0 0 -1.13192,-2.02614 c 0,0 1.43754,0.162243 1.63374,2.339304 0,0 1.57337,1.064007 1.67524,1.358306 0,0 0.10942,-2.177062 -0.52068,-3.474998 0,0 1.38849,1.113056 0.8678,3.859851 l 1.29416,1.48659 c 0,0 0.2943,-2.87508 -0.17733,-4.071143 0,0 1.23757,1.354532 0.47541,4.471089 l 1.04514,1.626193 c 0,0 0.44522,-2.456269 0.20752,-3.901355 0,0 0.87535,1.509228 0.0755,4.380536 l 0.57351,1.169652 c 0,0 0.29052,-1.799755 0.32825,-2.324212 0.0377,-0.524457 0.18111,-0.558415 0.18111,-0.558415 a 6.1953827,6.1953827 0 0 1 -0.26034,3.369353 c 0,0 1.01495,2.490227 1.18097,2.441177 z"
     fill="#75c1ae"
     id="path187"
     style="stroke-width:0.377307" />
  <ellipse
     cx="263.72379"
     cy="270.26718"
     rx="10.16088"
     ry="1.7167474"
     fill="#75c1ae"
     opacity="0.1"
     id="ellipse189"
     style="stroke-width:0.377307" />
  <ellipse
     cx="226.68355"
     cy="296.33154"
     rx="10.16088"
     ry="1.7167474"
     fill="#75c1ae"
     opacity="0.1"
     id="ellipse191"
     style="stroke-width:0.377307" />
  <ellipse
     cx="35.139824"
     cy="282.97864"
     rx="10.16088"
     ry="1.7167474"
     fill="#75c1ae"
     opacity="0.1"
     id="ellipse193"
     style="stroke-width:0.377307" />
  <ellipse
     cx="303.75229"
     cy="294.61481"
     rx="10.16088"
     ry="1.7167474"
     fill="#75c1ae"
     opacity="0.1"
     id="ellipse195"
     style="stroke-width:0.377307" />
  <ellipse
     cx="314.33197"
     cy="272.83286"
     rx="15.171518"
     ry="2.5656884"
     fill="#75c1ae"
     id="ellipse197"
     style="stroke-width:0.377307" />
  <path
     d="m 320.6217,268.63344 a 4.3805355,4.3805355 0 0 0 1.44509,-2.18084 c 0.18865,-0.8678 -0.18111,-1.9054 -1.00741,-2.22234 -0.92818,-0.35467 -1.9205,0.28676 -2.67511,0.93573 -0.75462,0.64896 -1.6111,1.39226 -2.59587,1.25643 a 3.9617246,3.9617246 0 0 0 1.22247,-3.70138 1.5507322,1.5507322 0 0 0 -0.33958,-0.75462 c -0.51691,-0.55087 -1.44886,-0.31316 -2.06764,0.12074 -1.962,1.38094 -2.50909,4.04473 -2.52041,6.4444 -0.1962,-0.86403 -0.0302,-1.76579 -0.034,-2.64115 -0.004,-0.87535 -0.24902,-1.88653 -0.99986,-2.34685 a 2.9844992,2.9844992 0 0 0 -1.50923,-0.3773 c -0.8829,-0.0302 -1.86767,0.0566 -2.46759,0.70179 -0.75461,0.79989 -0.55464,2.14688 0.0943,3.01846 0.64897,0.87157 1.64128,1.43376 2.55437,2.045 a 5.7086565,5.7086565 0 0 1 1.82616,1.73939 1.7733434,1.7733434 0 0 1 0.13206,0.30939 h 5.53132 a 15.258299,15.258299 0 0 0 3.41086,-2.34685 z"
     fill="#75c1ae"
     id="path199"
     style="stroke-width:0.377307" />
  <path
     d="m 28.318112,274.99861 c 0,0 5.791664,-0.17734 7.546142,-1.42245 1.754478,-1.24511 8.915767,-2.72793 9.34967,-0.73198 0.433903,1.99596 8.708248,9.91941 2.165743,9.97223 -6.542505,0.0528 -15.201703,-1.01873 -16.944862,-2.08273 -1.743159,-1.06401 -2.116693,-5.73507 -2.116693,-5.73507 z"
     fill="#a8a8a8"
     id="path201"
     style="stroke-width:0.377307" />
  <path
     d="m 47.489086,282.12217 c -6.542505,0.0528 -15.201703,-1.01873 -16.944862,-2.08274 -1.328121,-0.80744 -1.856351,-3.70893 -2.033685,-5.04837 h -0.192427 c 0,0 0.377307,4.67484 2.109147,5.73507 1.731839,1.06023 10.402357,2.13556 16.944862,2.08274 1.886535,0 2.539277,-0.6867 2.505319,-1.68279 -0.264115,0.60746 -0.984772,0.98477 -2.388354,0.99609 z"
     opacity="0.2"
     id="path203"
     style="stroke-width:0.377307" />
</svg>
