<?xml version="1.0" encoding="UTF-8" standalone="no"?>
<svg
   xmlns:dc="http://purl.org/dc/elements/1.1/"
   xmlns:cc="http://creativecommons.org/ns#"
   xmlns:rdf="http://www.w3.org/1999/02/22-rdf-syntax-ns#"
   xmlns:svg="http://www.w3.org/2000/svg"
   xmlns="http://www.w3.org/2000/svg"
   xmlns:sodipodi="http://sodipodi.sourceforge.net/DTD/sodipodi-0.dtd"
   xmlns:inkscape="http://www.inkscape.org/namespaces/inkscape"
   width="1080"
   height="5760"
   viewBox="0 0 285.74999 1524"
   version="1.1"
   id="svg8"
   inkscape:version="1.0.2 (1.0.2+r75+1)"
   sodipodi:docname="Shapes.svg">
  <defs
     id="defs2" />
  <sodipodi:namedview
     id="base"
     pagecolor="#ffffff"
     bordercolor="#666666"
     borderopacity="1.0"
     inkscape:pageopacity="0.0"
     inkscape:pageshadow="2"
     inkscape:zoom="0.088388348"
     inkscape:cx="1164.2809"
     inkscape:cy="2423.8632"
     inkscape:document-units="mm"
     inkscape:current-layer="layer1"
     inkscape:document-rotation="0"
     showgrid="false"
     units="px"
     showguides="true"
     inkscape:guide-bbox="true"
     inkscape:window-width="1366"
     inkscape:window-height="704"
     inkscape:window-x="0"
     inkscape:window-y="27"
     inkscape:window-maximized="1">
    <sodipodi:guide
       position="285.75,507.95762"
       orientation="1,0"
       id="guide130" />
    <sodipodi:guide
       position="0,594.80915"
       orientation="1,0"
       id="guide132" />
    <sodipodi:guide
       position="130.82509,508"
       orientation="0,-1"
       id="guide134" />
    <sodipodi:guide
       position="144.56984,-0.0012783946"
       orientation="0,-1"
       id="guide136" />
    <sodipodi:guide
       position="286.50291,508.01497"
       orientation="0,-1"
       id="guide246" />
  </sodipodi:namedview>
  <metadata
     id="metadata5">
    <rdf:RDF>
      <cc:Work
         rdf:about="">
        <dc:format>image/svg+xml</dc:format>
        <dc:type
           rdf:resource="http://purl.org/dc/dcmitype/StillImage" />
        <dc:title></dc:title>
      </cc:Work>
    </rdf:RDF>
  </metadata>
  <g
     inkscape:label="Capa 1"
     inkscape:groupmode="layer"
     id="layer1">
    <path
       style="display:inline;fill:#5e708c;fill-opacity:1;stroke:none;stroke-width:0.264583px;stroke-linecap:butt;stroke-linejoin:miter;stroke-opacity:1"
       d="M 285.75,332.80513 149.84345,442.6535 285.75,508.00128 Z"
       id="path1477"
       inkscape:connector-curvature="0" />
    <path
       style="fill:#5e708c;fill-opacity:1;stroke:none;stroke-width:1.18201;stroke-linecap:butt;stroke-linejoin:miter;stroke-miterlimit:4;stroke-dasharray:none;stroke-opacity:1"
       d="M 0,434.27507 A 113.24741,110.93045 0 0 0 113.24736,323.34488 113.24741,110.93045 0 0 0 0,212.41419 a 113.24741,110.93045 0 0 0 -0.45941,0.016 V 434.25233 A 113.24741,110.93045 0 0 0 0,434.27503 Z"
       id="path1473"
       inkscape:connector-curvature="0" />
    <path
       style="display:inline;fill:#5e708c;fill-opacity:1;stroke:none;stroke-width:2.35776;stroke-linecap:butt;stroke-linejoin:miter;stroke-miterlimit:4;stroke-dasharray:none;stroke-opacity:1"
       d="m 204.42239,151.22842 81.43416,28.50888 -0.10655,55.48273 -16.87033,49.27638 -99.07752,-34.55923 z"
       id="rect1479"
       inkscape:connector-curvature="0"
       sodipodi:nodetypes="cccccc" />
    <path
       style="display:inline;fill:#5e708c;fill-opacity:1;stroke:none;stroke-width:1.2;stroke-linecap:butt;stroke-linejoin:miter;stroke-miterlimit:4;stroke-dasharray:none;stroke-opacity:1"
       d="M 0,20.882474 V -3.8888887e-6 C 25.021132,36.915965 46.570329,74.018251 71.592229,110.9337 L 0,119.94686 Z"
       id="rect1485"
       inkscape:connector-curvature="0"
       sodipodi:nodetypes="ccccc" />
    <path
       style="display:inline;fill:#5e708c;fill-opacity:1;stroke:none;stroke-width:1.2;stroke-linecap:butt;stroke-linejoin:miter;stroke-miterlimit:4;stroke-dasharray:none;stroke-opacity:1"
       d="m 206.3352,23.516103 c 63.78348,53.79074 0,0 63.78348,53.79074 l -82.75316,17.59951 z"
       id="rect1482"
       inkscape:connector-curvature="0"
       sodipodi:nodetypes="cccc" />
    <path
       style="display:inline;fill:#5e708c;fill-opacity:1;stroke:none;stroke-width:0.264583px;stroke-linecap:butt;stroke-linejoin:miter;stroke-opacity:1"
       d="M 285.75,840.80641 149.84345,950.65478 285.75,1016.0025 Z"
       id="path1477-8"
       inkscape:connector-curvature="0" />
    <path
       style="fill:#5e708c;fill-opacity:1;stroke:none;stroke-width:1.18201;stroke-linecap:butt;stroke-linejoin:miter;stroke-miterlimit:4;stroke-dasharray:none;stroke-opacity:1"
       d="M 0,942.27635 A 113.24741,110.93045 0 0 0 113.24736,831.34616 113.24741,110.93045 0 0 0 0,720.41547 a 113.24741,110.93045 0 0 0 -0.45941,0.016 V 942.25361 A 113.24741,110.93045 0 0 0 0,942.27631 Z"
       id="path1473-7"
       inkscape:connector-curvature="0" />
    <path
       style="display:inline;fill:#5e708c;fill-opacity:1;stroke:none;stroke-width:2.35776;stroke-linecap:butt;stroke-linejoin:miter;stroke-miterlimit:4;stroke-dasharray:none;stroke-opacity:1"
       d="m 204.42239,659.2297 81.43416,28.50888 -0.10655,55.48273 -16.87033,49.27638 -99.07752,-34.55923 z"
       id="rect1479-9"
       inkscape:connector-curvature="0"
       sodipodi:nodetypes="cccccc" />
    <path
       style="display:inline;fill:#5e708c;fill-opacity:1;stroke:none;stroke-width:1.2;stroke-linecap:butt;stroke-linejoin:miter;stroke-miterlimit:4;stroke-dasharray:none;stroke-opacity:1"
       d="m 0,528.88375 v -20.88247 c 25.021132,36.91597 46.570329,74.01825 71.592229,110.9337 L 0,627.94814 Z"
       id="rect1485-2"
       inkscape:connector-curvature="0"
       sodipodi:nodetypes="ccccc" />
    <path
       style="display:inline;fill:#5e708c;fill-opacity:1;stroke:none;stroke-width:1.2;stroke-linecap:butt;stroke-linejoin:miter;stroke-miterlimit:4;stroke-dasharray:none;stroke-opacity:1"
       d="m 206.3352,531.51738 c 63.78348,53.79074 0,0 63.78348,53.79074 l -82.75316,17.59951 z"
       id="rect1482-0"
       inkscape:connector-curvature="0"
       sodipodi:nodetypes="cccc" />
    <path
       style="display:inline;fill:#5e708c;fill-opacity:1;stroke:none;stroke-width:0.264583px;stroke-linecap:butt;stroke-linejoin:miter;stroke-opacity:1"
       d="M 285.75,1348.7901 149.84345,1458.6385 285.75,1523.9863 Z"
       id="path1477-2"
       inkscape:connector-curvature="0" />
    <path
       style="fill:#5e708c;fill-opacity:1;stroke:none;stroke-width:1.18201;stroke-linecap:butt;stroke-linejoin:miter;stroke-miterlimit:4;stroke-dasharray:none;stroke-opacity:1"
       d="M 0,1450.2601 A 113.24741,110.93045 0 0 0 113.24736,1339.3299 113.24741,110.93045 0 0 0 0,1228.3992 a 113.24741,110.93045 0 0 0 -0.45941,0.016 v 221.8221 A 113.24741,110.93045 0 0 0 0,1450.2603 Z"
       id="path1473-3"
       inkscape:connector-curvature="0" />
    <path
       style="display:inline;fill:#5e708c;fill-opacity:1;stroke:none;stroke-width:2.35776;stroke-linecap:butt;stroke-linejoin:miter;stroke-miterlimit:4;stroke-dasharray:none;stroke-opacity:1"
       d="m 204.42239,1167.2134 81.43416,28.5089 -0.10655,55.4827 -16.87033,49.2764 -99.07752,-34.5592 z"
       id="rect1479-7"
       inkscape:connector-curvature="0"
       sodipodi:nodetypes="cccccc" />
    <path
       style="display:inline;fill:#5e708c;fill-opacity:1;stroke:none;stroke-width:1.2;stroke-linecap:butt;stroke-linejoin:miter;stroke-miterlimit:4;stroke-dasharray:none;stroke-opacity:1"
       d="m 0,1036.8675 v -20.8825 c 25.02113,36.916 46.570329,74.0183 71.592229,110.9337 L 0,1135.9319 Z"
       id="rect1485-5"
       inkscape:connector-curvature="0"
       sodipodi:nodetypes="ccccc" />
    <path
       style="display:inline;fill:#5e708c;fill-opacity:1;stroke:none;stroke-width:1.2;stroke-linecap:butt;stroke-linejoin:miter;stroke-miterlimit:4;stroke-dasharray:none;stroke-opacity:1"
       d="m 206.3352,1039.5011 c 63.78348,53.7907 0,0 63.78348,53.7907 l -82.75316,17.5996 z"
       id="rect1482-9"
       inkscape:connector-curvature="0"
       sodipodi:nodetypes="cccc" />
  </g>
</svg>
